<svg xmlns="http://www.w3.org/2000/svg" viewBox="0 0 43 45" fill="none"><path d="M21.299 42.232c-1.19 0-2.396-.28-3.337-.858L8.2 35.458c-3.975-2.818-4.224-3.247-4.224-7.67V17c0-4.423.23-4.852 4.136-7.633l9.832-5.972c1.864-1.138 4.793-1.138 6.656 0l9.798 5.935c3.975 2.818 4.224 3.247 4.224 7.67v10.768c0 4.423-.231 4.852-4.136 7.633l-9.832 5.972c-.959.578-2.166.858-3.355.858m0-36.876c-.745 0-1.473.149-1.988.466L9.55 11.757C6.656 13.81 6.656 13.81 6.656 17v10.768c0 3.191 0 3.191 2.964 5.3l9.691 5.879c1.047.634 2.946.634 3.994 0l9.761-5.935c2.876-2.053 2.876-2.053 2.876-5.244V17.001c0-3.191 0-3.191-2.964-5.3l-9.691-5.879c-.515-.317-1.243-.466-1.988-.466"/><path d="M21.299 29.393c-3.674 0-6.656-3.135-6.656-6.998s2.982-6.999 6.656-6.999 6.655 3.136 6.655 6.999-2.982 6.998-6.655 6.998m0-11.197c-2.201 0-3.994 1.885-3.994 4.199s1.793 4.199 3.994 4.199c2.2 0 3.993-1.885 3.993-4.2 0-2.313-1.793-4.198-3.994-4.198"/></svg>