<svg width="427" height="351" viewBox="0 0 427 351" fill="none" xmlns="http://www.w3.org/2000/svg">
<path d="M412.062 0.708862H55.9198C48.1399 0.708862 41.833 7.01889 41.833 14.8027V245.447C41.833 253.231 48.1399 259.541 55.9198 259.541H412.062C419.841 259.541 426.148 253.231 426.148 245.447V14.8027C426.148 7.01889 419.841 0.708862 412.062 0.708862Z" fill="white"/>
<path d="M412.061 260.263H55.9056C51.9839 260.256 48.225 258.694 45.4519 255.92C42.6788 253.145 41.1177 249.384 41.1104 245.461V14.7332C41.136 10.8216 42.7052 7.07854 45.4763 4.31908C48.2474 1.55962 51.9959 0.00724798 55.9056 0H412.061C415.984 0.00368007 419.745 1.56443 422.519 4.33967C425.293 7.11492 426.853 10.8779 426.857 14.8027V245.53C426.835 249.443 425.267 253.188 422.495 255.948C419.723 258.709 415.972 260.26 412.061 260.263ZM55.9056 1.43162C52.3634 1.43897 48.9684 2.85006 46.4637 5.35603C43.959 7.86201 42.5486 11.2587 42.5413 14.8027V245.53C42.5486 249.074 43.959 252.471 46.4637 254.977C48.9684 257.483 52.3634 258.894 55.9056 258.901H412.061C415.605 258.898 419.002 257.488 421.507 254.981C424.013 252.474 425.422 249.075 425.426 245.53V14.8027C425.422 11.2576 424.013 7.85875 421.507 5.35199C419.002 2.84522 415.605 1.4353 412.061 1.43162H55.9056Z" fill="#231F20"/>
<path d="M254.356 259.541H203.899V311.204H254.356V259.541Z" fill="#2945FF"/>
<path d="M254.329 311.899H203.9C203.715 311.899 203.539 311.826 203.409 311.696C203.278 311.565 203.205 311.389 203.205 311.204V259.541C203.205 259.45 203.223 259.36 203.258 259.277C203.293 259.193 203.345 259.118 203.409 259.054C203.474 258.991 203.551 258.941 203.635 258.907C203.719 258.874 203.809 258.858 203.9 258.86H254.329C254.509 258.86 254.682 258.931 254.81 259.059C254.938 259.187 255.009 259.36 255.009 259.541V311.232C255.002 311.409 254.928 311.577 254.801 311.701C254.675 311.825 254.506 311.896 254.329 311.899ZM204.567 310.509H253.634V260.236H204.594L204.567 310.509Z" fill="#231F20"/>
<path d="M280.543 311.204H177.712C174.912 311.204 172.642 313.476 172.642 316.277V316.291C172.642 319.093 174.912 321.365 177.712 321.365H280.543C283.343 321.365 285.613 319.093 285.613 316.291V316.277C285.613 313.476 283.343 311.204 280.543 311.204Z" fill="#2945FF"/>
<path d="M280.53 322.046H177.727C176.198 322.046 174.732 321.438 173.651 320.356C172.569 319.274 171.962 317.807 171.962 316.277C171.962 314.748 172.569 313.28 173.651 312.199C174.732 311.117 176.198 310.509 177.727 310.509H280.53C282.059 310.509 283.525 311.117 284.607 312.199C285.688 313.28 286.295 314.748 286.295 316.277C286.295 317.807 285.688 319.274 284.607 320.356C283.525 321.438 282.059 322.046 280.53 322.046ZM177.727 311.899C176.607 311.962 175.554 312.452 174.784 313.267C174.013 314.083 173.584 315.162 173.584 316.284C173.584 317.407 174.013 318.486 174.784 319.302C175.554 320.117 176.607 320.607 177.727 320.67H280.53C281.126 320.703 281.723 320.615 282.284 320.41C282.845 320.204 283.358 319.887 283.792 319.476C284.226 319.066 284.572 318.571 284.808 318.022C285.045 317.473 285.167 316.882 285.167 316.284C285.167 315.687 285.045 315.096 284.808 314.547C284.572 313.998 284.226 313.503 283.792 313.093C283.358 312.682 282.845 312.364 282.284 312.159C281.723 311.954 281.126 311.866 280.53 311.899H177.727Z" fill="#231F20"/>
<path d="M426.148 13.1626H41.833V222.861H426.148V13.1626Z" fill="white"/>
<path d="M426.148 223.569H41.7773C41.6831 223.571 41.5895 223.554 41.5019 223.52C41.4143 223.485 41.3346 223.433 41.2673 223.367C41.2 223.301 41.1466 223.222 41.1101 223.135C41.0737 223.048 41.0549 222.955 41.0549 222.861V13.1626C41.0492 13.0642 41.0637 12.9657 41.0975 12.8732C41.1312 12.7806 41.1835 12.6959 41.2512 12.6243C41.3188 12.5528 41.4004 12.4958 41.4909 12.4569C41.5814 12.418 41.6788 12.398 41.7773 12.3981H426.148C426.242 12.3981 426.336 12.4169 426.423 12.4534C426.509 12.4899 426.588 12.5433 426.654 12.6106C426.72 12.6779 426.772 12.7577 426.807 12.8454C426.842 12.933 426.859 13.0266 426.857 13.1209V222.861C426.857 222.954 426.838 223.046 426.803 223.132C426.767 223.218 426.715 223.296 426.649 223.362C426.583 223.428 426.505 223.48 426.419 223.515C426.333 223.551 426.241 223.569 426.148 223.569ZM42.5414 222.18H425.426V13.8715H42.5414V222.18Z" fill="#231F20"/>
<path d="M247.382 183.011H68.3526C68.1683 183.011 67.9917 182.938 67.8614 182.808C67.7311 182.678 67.658 182.501 67.658 182.316V41.5866C67.658 41.4022 67.7311 41.2255 67.8614 41.0952C67.9917 40.9648 68.1683 40.8916 68.3526 40.8916H247.382C247.566 40.8916 247.743 40.9648 247.873 41.0952C248.003 41.2255 248.077 41.4022 248.077 41.5866V182.316C248.077 182.501 248.003 182.678 247.873 182.808C247.743 182.938 247.566 183.011 247.382 183.011ZM69.0333 181.622H246.701V42.2676H69.0472L69.0333 181.622Z" fill="#D1D3D4"/>
<path d="M203.399 72.4707H112.502C112.318 72.4707 112.141 72.3975 112.011 72.2672C111.881 72.1369 111.808 71.9601 111.808 71.7758C111.808 71.5915 111.881 71.4147 112.011 71.2844C112.141 71.154 112.318 71.0808 112.502 71.0808H203.399C203.584 71.0808 203.76 71.154 203.891 71.2844C204.021 71.4147 204.094 71.5915 204.094 71.7758C204.094 71.9601 204.021 72.1369 203.891 72.2672C203.76 72.3975 203.584 72.4707 203.399 72.4707Z" fill="#D1D3D4"/>
<path d="M98.5694 72.4707H91.137C90.9528 72.4707 90.7761 72.3975 90.6458 72.2672C90.5156 72.1369 90.4424 71.9601 90.4424 71.7758C90.4424 71.5915 90.5156 71.4147 90.6458 71.2844C90.7761 71.154 90.9528 71.0808 91.137 71.0808H98.5694C98.7536 71.0808 98.9303 71.154 99.0605 71.2844C99.1908 71.4147 99.264 71.5915 99.264 71.7758C99.264 71.9601 99.1908 72.1369 99.0605 72.2672C98.9303 72.3975 98.7536 72.4707 98.5694 72.4707Z" fill="#D1D3D4"/>
<path d="M227.753 92.6385H167.044C166.86 92.6385 166.683 92.5653 166.553 92.435C166.423 92.3046 166.35 92.1279 166.35 91.9436C166.35 91.7592 166.423 91.5825 166.553 91.4521C166.683 91.3218 166.86 91.2486 167.044 91.2486H227.753C227.938 91.2486 228.114 91.3218 228.245 91.4521C228.375 91.5825 228.448 91.7592 228.448 91.9436C228.448 92.1279 228.375 92.3046 228.245 92.435C228.114 92.5653 227.938 92.6385 227.753 92.6385Z" fill="#D1D3D4"/>
<path d="M149.497 92.6385H112.502C112.318 92.6385 112.141 92.5653 112.011 92.435C111.881 92.3046 111.808 92.1279 111.808 91.9436C111.808 91.7592 111.881 91.5825 112.011 91.4521C112.141 91.3218 112.318 91.2486 112.502 91.2486H149.497C149.682 91.2486 149.858 91.3218 149.989 91.4521C150.119 91.5825 150.192 91.7592 150.192 91.9436C150.192 92.1279 150.119 92.3046 149.989 92.435C149.858 92.5653 149.682 92.6385 149.497 92.6385Z" fill="#D1D3D4"/>
<path d="M98.5694 92.6385H91.137C90.9528 92.6385 90.7761 92.5653 90.6458 92.435C90.5156 92.3046 90.4424 92.1279 90.4424 91.9436C90.4424 91.7592 90.5156 91.5825 90.6458 91.4521C90.7761 91.3218 90.9528 91.2486 91.137 91.2486H98.5694C98.7536 91.2486 98.9303 91.3218 99.0605 91.4521C99.1908 91.5825 99.264 91.7592 99.264 91.9436C99.264 92.1279 99.1908 92.3046 99.0605 92.435C98.9303 92.5653 98.7536 92.6385 98.5694 92.6385Z" fill="#D1D3D4"/>
<path d="M199.093 112.806H112.502C112.318 112.806 112.141 112.733 112.011 112.603C111.881 112.472 111.808 112.296 111.808 112.111C111.808 111.927 111.881 111.75 112.011 111.62C112.141 111.49 112.318 111.416 112.502 111.416H199.093C199.276 111.42 199.451 111.494 199.58 111.624C199.71 111.753 199.784 111.928 199.787 112.111C199.787 112.296 199.714 112.472 199.584 112.603C199.454 112.733 199.277 112.806 199.093 112.806Z" fill="#D1D3D4"/>
<path d="M98.5694 112.806H91.137C90.9528 112.806 90.7761 112.733 90.6458 112.603C90.5156 112.472 90.4424 112.296 90.4424 112.111C90.4459 111.928 90.5203 111.753 90.6498 111.624C90.7793 111.494 90.9539 111.42 91.137 111.416H98.5694C98.7536 111.416 98.9303 111.49 99.0605 111.62C99.1908 111.75 99.264 111.927 99.264 112.111C99.264 112.296 99.1908 112.472 99.0605 112.603C98.9303 112.733 98.7536 112.806 98.5694 112.806Z" fill="#D1D3D4"/>
<path d="M192.452 132.974H150.776C150.591 132.974 150.415 132.901 150.284 132.771C150.154 132.64 150.081 132.464 150.081 132.279C150.081 132.095 150.154 131.918 150.284 131.788C150.415 131.657 150.591 131.584 150.776 131.584H192.452C192.636 131.588 192.81 131.662 192.94 131.792C193.069 131.921 193.143 132.096 193.147 132.279C193.147 132.464 193.074 132.64 192.944 132.771C192.813 132.901 192.637 132.974 192.452 132.974Z" fill="#D1D3D4"/>
<path d="M167.043 132.974H112.502C112.318 132.974 112.141 132.901 112.011 132.771C111.881 132.64 111.808 132.464 111.808 132.279C111.808 132.095 111.881 131.918 112.011 131.788C112.141 131.657 112.318 131.584 112.502 131.584H167.043C167.228 131.584 167.404 131.657 167.535 131.788C167.665 131.918 167.738 132.095 167.738 132.279C167.738 132.464 167.665 132.64 167.535 132.771C167.404 132.901 167.228 132.974 167.043 132.974Z" fill="#D1D3D4"/>
<path d="M98.5694 132.974H91.137C90.9528 132.974 90.7761 132.901 90.6458 132.771C90.5156 132.64 90.4424 132.464 90.4424 132.279C90.4459 132.096 90.5203 131.921 90.6498 131.792C90.7793 131.662 90.9539 131.588 91.137 131.584H98.5694C98.7536 131.584 98.9303 131.657 99.0605 131.788C99.1908 131.918 99.264 132.095 99.264 132.279C99.264 132.464 99.1908 132.64 99.0605 132.771C98.9303 132.901 98.7536 132.974 98.5694 132.974Z" fill="#D1D3D4"/>
<path d="M171.614 152.586H112.502C112.318 152.586 112.141 152.513 112.011 152.382C111.881 152.252 111.808 152.075 111.808 151.891C111.808 151.707 111.881 151.53 112.011 151.4C112.141 151.269 112.318 151.196 112.502 151.196H171.614C171.798 151.196 171.975 151.269 172.105 151.4C172.235 151.53 172.309 151.707 172.309 151.891C172.309 152.075 172.235 152.252 172.105 152.382C171.975 152.513 171.798 152.586 171.614 152.586Z" fill="#D1D3D4"/>
<path d="M98.5694 152.586H91.137C90.9528 152.586 90.7761 152.513 90.6458 152.382C90.5156 152.252 90.4424 152.075 90.4424 151.891C90.4424 151.707 90.5156 151.53 90.6458 151.4C90.7761 151.269 90.9528 151.196 91.137 151.196H98.5694C98.7536 151.196 98.9303 151.269 99.0605 151.4C99.1908 151.53 99.264 151.707 99.264 151.891C99.264 152.075 99.1908 152.252 99.0605 152.382C98.9303 152.513 98.7536 152.586 98.5694 152.586Z" fill="#D1D3D4"/>
<path d="M387.042 134.837L392.099 120.395C392.099 120.395 388.973 113.015 389.57 108.887C390.168 104.759 392.099 97.3087 393.738 98.0314C395.377 98.7542 394.46 102.118 395.655 107.65C395.655 107.65 405.283 90.0811 407.922 90.5675C410.562 91.054 410.089 93.0833 409.311 94.3481C409.311 94.3481 412.201 91.888 413.159 93.5698C413.432 94.0909 413.574 94.6703 413.574 95.2585C413.574 95.8467 413.432 96.4262 413.159 96.9473C413.159 96.9473 415.202 94.6539 415.938 96.2245C416.1 96.8143 416.131 97.4325 416.028 98.0355C415.924 98.6384 415.69 99.2112 415.341 99.7132C415.341 99.7132 417.744 97.4199 417.98 99.4631C418.216 101.506 399.587 141.564 399.587 141.564" fill="white"/>
<path d="M399.67 142.287C399.569 142.306 399.465 142.306 399.364 142.287C399.191 142.205 399.058 142.059 398.992 141.879C398.927 141.699 398.936 141.501 399.017 141.328C406.338 125.607 417.257 101.52 417.341 99.6298C417.357 99.5613 417.357 99.4898 417.341 99.4213C416.826 99.6463 416.355 99.9617 415.951 100.353C415.819 100.47 415.649 100.535 415.472 100.535C415.295 100.535 415.125 100.47 414.993 100.353C414.858 100.239 414.771 100.079 414.748 99.9042C414.725 99.7294 414.767 99.5523 414.868 99.4074C415.156 99.0122 415.355 98.5583 415.448 98.0779C415.542 97.5975 415.529 97.1023 415.41 96.6276C415.396 96.5743 415.367 96.5261 415.326 96.4886C414.736 96.6758 414.214 97.0337 413.826 97.5171C413.71 97.6496 413.55 97.7343 413.375 97.7549C413.2 97.7754 413.024 97.7303 412.881 97.6283C412.736 97.5244 412.634 97.3703 412.596 97.1958C412.557 97.0212 412.585 96.8386 412.673 96.6832C412.886 96.2732 412.997 95.8179 412.997 95.3558C412.997 94.8937 412.886 94.4384 412.673 94.0284C412.645 93.9709 412.604 93.9207 412.554 93.8821C412.503 93.8434 412.444 93.8173 412.381 93.806C411.456 93.9401 410.594 94.3521 409.908 94.9874C409.781 95.0989 409.619 95.1603 409.45 95.1603C409.281 95.1603 409.118 95.0989 408.991 94.9874C408.863 94.8795 408.777 94.7304 408.746 94.5656C408.716 94.4008 408.743 94.2306 408.825 94.084C409.027 93.8024 409.166 93.4797 409.231 93.1387C409.296 92.7978 409.285 92.4467 409.2 92.1103C409.033 91.735 408.589 91.4848 407.88 91.3597C406.407 91.3597 400.753 100.075 396.377 108.039C396.309 108.169 396.2 108.275 396.068 108.34C395.936 108.405 395.786 108.426 395.641 108.4C395.497 108.379 395.363 108.314 395.256 108.215C395.15 108.115 395.076 107.986 395.044 107.844C394.64 105.907 394.394 103.941 394.307 101.965C394.182 100.061 394.085 98.9626 393.543 98.7263C392.779 99.0043 391.07 103.911 390.32 109.04C389.751 112.917 392.765 120.159 392.793 120.159C392.855 120.325 392.855 120.507 392.793 120.673L387.695 135.073C387.664 135.162 387.615 135.244 387.552 135.314C387.489 135.384 387.412 135.441 387.327 135.481C387.241 135.521 387.149 135.544 387.054 135.548C386.96 135.552 386.866 135.537 386.778 135.504C386.689 135.474 386.607 135.427 386.537 135.365C386.467 135.303 386.411 135.228 386.37 135.144C386.33 135.059 386.307 134.968 386.303 134.874C386.299 134.781 386.314 134.688 386.347 134.6L391.307 120.423C390.737 119.033 388.264 112.667 388.834 108.789C389.209 106.218 390.751 98.6152 392.835 97.4476C393.013 97.3394 393.214 97.2753 393.422 97.2608C393.63 97.2463 393.838 97.2818 394.029 97.3642C395.419 97.9619 395.516 99.5881 395.669 101.826C395.738 102.882 395.808 104.133 396.016 105.551C399.364 99.5742 405.477 89.4278 408.061 89.8586C408.553 89.9053 409.027 90.0714 409.441 90.3427C409.855 90.6139 410.197 90.9821 410.436 91.4153C410.618 91.8058 410.694 92.237 410.658 92.6663C411.243 92.3608 411.906 92.2351 412.562 92.3049C412.832 92.3514 413.088 92.458 413.312 92.6168C413.535 92.7755 413.721 92.9824 413.854 93.2222C414.188 93.8165 414.365 94.4863 414.368 95.1681C414.709 95.0034 415.088 94.9361 415.465 94.9736C415.725 95.0201 415.969 95.1309 416.176 95.296C416.382 95.4611 416.544 95.6751 416.646 95.9187C416.919 96.5682 416.992 97.2846 416.854 97.9758C417.162 97.8778 417.492 97.8778 417.799 97.9758C418.078 98.0851 418.318 98.2764 418.486 98.5244C418.655 98.7725 418.745 99.0657 418.744 99.3657C418.994 101.451 404.685 132.418 400.295 141.856C400.241 141.979 400.154 142.084 400.043 142.16C399.933 142.236 399.804 142.28 399.67 142.287Z" fill="#231F20"/>
<path d="M294.089 191.101C294.089 191.101 281.586 213.173 280.377 222.861H365.342C365.342 222.861 357.812 204.889 353.534 192.685L294.089 191.101Z" fill="#231F20"/>
<path d="M365.342 223.542H280.377C280.281 223.541 280.185 223.522 280.097 223.483C280.009 223.445 279.929 223.389 279.863 223.319C279.798 223.246 279.748 223.16 279.717 223.067C279.686 222.974 279.674 222.875 279.682 222.777C280.877 213.048 292.977 191.657 293.491 190.809C293.546 190.696 293.634 190.603 293.743 190.541C293.852 190.479 293.977 190.451 294.102 190.461L353.547 192.046C353.689 192.052 353.825 192.1 353.939 192.184C354.053 192.268 354.139 192.385 354.186 192.519C358.354 204.555 365.911 222.458 365.981 222.638C366.025 222.744 366.042 222.86 366.03 222.974C366.018 223.088 365.977 223.197 365.912 223.291C365.844 223.376 365.757 223.443 365.658 223.487C365.558 223.531 365.45 223.549 365.342 223.542ZM281.183 222.152H364.3C362.716 218.316 356.729 203.791 353.033 193.352L294.491 191.782C292.908 194.617 282.739 213.076 281.183 222.166V222.152Z" fill="#231F20"/>
<path d="M224.515 154.532C224.308 154.515 224.104 154.478 223.904 154.421C220.584 153.587 216.36 148.708 213.818 146.47C207.488 141.062 201.98 134.76 197.467 127.762C196.772 126.843 196.323 125.762 196.161 124.621C196.186 123.642 196.458 122.685 196.953 121.841C198.953 118.019 202.76 113.501 207.192 115.531C208.831 116.281 219.194 124.843 219.194 126.33C218.868 123.706 218.84 121.052 219.111 118.422C219.535 118.219 220.011 118.155 220.473 118.24C220.935 118.325 221.358 118.554 221.681 118.894C222.311 119.587 222.785 120.407 223.07 121.299C223.876 123.328 234.184 149.598 235.046 149.097C232.1 150.89 228.266 154.977 224.515 154.532Z" fill="white"/>
<path d="M225.155 155.282C224.937 155.296 224.719 155.296 224.502 155.282C224.268 155.254 224.036 155.212 223.807 155.157C221.098 154.476 217.986 151.46 215.472 149.028C214.694 148.277 213.985 147.638 213.388 147.054C207.001 141.606 201.445 135.251 196.898 128.193C196.145 127.162 195.667 125.957 195.509 124.69C195.514 123.579 195.816 122.49 196.384 121.535C197.537 119.311 201.76 112.264 207.498 114.891C211.354 117.537 214.954 120.539 218.25 123.856C218.159 122.002 218.211 120.143 218.403 118.297C218.417 118.186 218.456 118.08 218.516 117.986C218.576 117.893 218.656 117.813 218.751 117.754C219.307 117.476 219.938 117.381 220.552 117.483C221.166 117.586 221.732 117.88 222.168 118.324C222.875 119.09 223.406 120.001 223.724 120.993L224.016 121.73C232.74 143.885 234.824 147.707 235.296 148.333C235.419 148.383 235.525 148.467 235.603 148.573C235.681 148.68 235.729 148.806 235.74 148.938C235.752 149.07 235.727 149.203 235.668 149.322C235.609 149.44 235.519 149.541 235.407 149.612C234.657 150.084 233.851 150.71 232.99 151.363C230.601 153.211 227.933 155.282 225.155 155.282ZM205.039 115.725C201.33 115.725 198.523 120.493 197.662 122.147C197.226 122.885 196.982 123.722 196.954 124.579C197.114 125.588 197.52 126.543 198.134 127.359C202.613 134.292 208.074 140.538 214.347 145.9C214.986 146.456 215.736 147.165 216.486 147.93C218.862 150.237 221.821 153.114 224.155 153.698C224.323 153.745 224.495 153.778 224.669 153.795C227.155 154.087 229.823 152.03 232.184 150.209C232.823 149.723 233.435 149.25 234.032 148.819C232.935 147.068 230.295 141.355 222.752 122.23L222.46 121.493C222.214 120.698 221.802 119.963 221.251 119.339C221.07 119.159 220.852 119.023 220.612 118.938C220.371 118.854 220.115 118.825 219.862 118.852C219.635 121.291 219.672 123.747 219.973 126.177V126.372C219.952 126.535 219.874 126.686 219.754 126.799C219.633 126.911 219.477 126.978 219.313 126.988C219.148 126.998 218.986 126.95 218.853 126.853C218.719 126.756 218.624 126.615 218.584 126.455C218.576 126.419 218.576 126.381 218.584 126.344C218.056 124.857 208.609 116.962 207.012 116.226C206.376 115.909 205.679 115.738 204.969 115.725H205.039Z" fill="#231F20"/>
<path d="M361.215 108.456C361.215 108.456 368.425 115.405 370.342 118.185C372.259 120.965 374.038 156.2 374.038 156.2L384.957 129.791L403.295 136.949C403.295 136.949 392.098 194.145 380.317 195.326C368.536 196.508 345.684 174.255 345.684 174.255L361.215 108.456Z" fill="#2945FF"/>
<path d="M307.689 102.743C307.689 102.743 286.573 106.913 281.419 113.321C276.265 119.728 291.894 177.91 292.199 193.936C292.199 193.936 328.652 200.302 353.533 192.727C353.533 192.727 362.174 162.051 364.425 144.413C366.676 126.775 363.786 111.375 361.216 108.498C358.646 105.62 348.796 103.702 348.796 103.702C348.796 103.702 312.51 103.675 307.689 102.743Z" fill="#2945FF"/>
<path d="M365.98 102.215C366.44 100.161 366.687 98.0651 366.716 95.9604C366.758 94.7033 366.565 93.4493 366.147 92.2632C364.591 88.3992 359.409 86.7035 358.562 82.5337C357.853 79.1006 359.145 76.0984 358.242 72.8043C357.339 69.5102 356.464 68.148 356.853 64.3396C357.421 57.6071 356.324 50.838 353.658 44.6305C351.185 38.7928 347.67 36.1103 343.405 31.6903C342.399 30.7115 341.196 29.9582 339.876 29.4803C328.596 25.0465 316.26 28.563 310.564 39.7102C307.396 45.9092 306.021 52.9561 302.353 58.8772C299.77 63.047 296.046 66.7025 295.06 71.5116C294.199 75.6814 295.769 79.7817 294.782 84.021C294.487 85.4556 293.936 86.8255 293.157 88.0657C292.255 89.2926 291.205 90.4036 290.031 91.3737C287.381 93.6015 285.045 96.1777 283.085 99.0322C282.457 100.023 281.922 101.07 281.487 102.159L365.98 102.215Z" fill="white"/>
<path d="M365.98 102.938H281.418C281.299 102.939 281.183 102.91 281.078 102.854C280.974 102.798 280.885 102.717 280.82 102.618C280.769 102.515 280.742 102.4 280.742 102.285C280.742 102.169 280.769 102.055 280.82 101.951C281.275 100.823 281.833 99.7384 282.487 98.7125C284.492 95.8017 286.875 93.1703 289.572 90.8872L289.725 90.7621C290.798 89.8711 291.759 88.8537 292.587 87.7321C293.319 86.5636 293.836 85.274 294.115 83.9237C294.458 81.8736 294.487 79.7832 294.199 77.7246C293.943 75.6258 293.985 73.5014 294.324 71.4144C295.032 67.884 297.172 64.9651 299.228 62.1297C300.075 60.9621 300.95 59.7668 301.7 58.5437C303.619 55.1811 305.193 51.6326 306.396 47.9524C307.383 45.0279 308.552 42.1683 309.897 39.3905C315.454 28.3823 327.957 24.0318 340.099 28.8271C341.521 29.3323 342.816 30.1436 343.891 31.2038C344.711 32.0517 345.503 32.8439 346.267 33.5945C349.462 36.7774 352.24 39.5295 354.296 44.3664C357.006 50.6845 358.117 57.573 357.533 64.423C357.318 66.5296 357.599 68.6574 358.353 70.636C358.548 71.2476 358.756 71.8869 358.95 72.6236C359.344 74.3559 359.424 76.1448 359.187 77.9053C359.004 79.4126 359.036 80.9384 359.284 82.4365C359.687 84.3963 361.257 85.8001 362.937 87.2873C364.579 88.5379 365.91 90.1503 366.827 91.9992C367.277 93.2697 367.484 94.6134 367.439 95.9604C367.417 98.1161 367.17 100.264 366.702 102.368C366.667 102.532 366.575 102.679 366.443 102.783C366.312 102.887 366.148 102.942 365.98 102.938ZM282.515 101.548H365.466C365.851 99.7195 366.051 97.8568 366.063 95.9882C366.107 94.8218 365.933 93.6575 365.549 92.5551C364.712 90.9147 363.509 89.4882 362.034 88.3853C360.27 86.8008 358.436 85.1746 357.867 82.7562C357.592 81.1303 357.549 79.4735 357.742 77.8358C357.96 76.2344 357.899 74.6072 357.561 73.0267C357.367 72.3178 357.158 71.6368 356.978 71.0947C356.16 68.9381 355.855 66.6205 356.089 64.3257C356.657 57.6992 355.583 51.0347 352.963 44.9224C351.018 40.3495 348.462 37.8199 345.239 34.6231C344.475 33.8586 343.669 33.0663 342.849 32.2046C341.917 31.2945 340.798 30.5975 339.571 30.1614C328.11 25.658 316.426 29.7166 311.161 40.0438C309.853 42.7512 308.712 45.5363 307.744 48.3833C306.519 52.1641 304.913 55.8106 302.951 59.2664C302.173 60.5174 301.284 61.7405 300.422 62.9219C298.352 65.7018 296.407 68.4816 295.755 71.6646C295.444 73.6192 295.411 75.6079 295.657 77.5717C295.938 79.7923 295.872 82.0429 295.463 84.2434C295.154 85.7635 294.57 87.2144 293.74 88.5243C292.843 89.747 291.803 90.8576 290.642 91.8324L290.489 91.9575C287.892 94.1535 285.594 96.6817 283.654 99.477C283.226 100.125 282.845 100.803 282.515 101.506V101.548Z" fill="#231F20"/>
<path d="M339.071 99.5742C339.071 99.5742 341.85 140.23 327.68 137.505C308.758 133.474 317.358 104.912 317.358 104.912L317.677 99.5742L318.386 87.1622L319.067 75.5563L338.96 75.3339L339.724 84.8132L339.96 87.8849L339.071 99.5742Z" fill="white"/>
<path d="M328.972 138.353C328.477 138.349 327.984 138.298 327.499 138.2C325.436 137.83 323.477 137.017 321.758 135.818C320.038 134.618 318.599 133.06 317.539 131.251C311.857 121.632 316.149 106.232 316.608 104.842L318.317 75.5702C318.327 75.3895 318.407 75.2198 318.538 75.0957C318.67 74.9717 318.844 74.9028 319.025 74.9031L338.919 74.6807C339.099 74.6798 339.273 74.7464 339.407 74.8672C339.54 74.9881 339.624 75.1545 339.641 75.3339L340.641 87.8433L339.738 99.5881C339.863 101.409 341.628 129.346 333.473 136.602C332.245 137.729 330.639 138.354 328.972 138.353ZM319.706 76.3347L318.039 105.023C318.045 105.078 318.045 105.134 318.039 105.19C318.039 105.356 313.288 121.285 318.803 130.611C319.767 132.242 321.072 133.644 322.628 134.724C324.184 135.803 325.955 136.534 327.819 136.866C328.651 137.054 329.516 137.035 330.339 136.812C331.162 136.59 331.918 136.169 332.542 135.587C340.28 128.721 338.363 99.9773 338.335 99.6993V99.5881L339.238 87.8989L338.294 76.1262L319.706 76.3347Z" fill="#231F20"/>
<path d="M339.918 87.885C338.37 90.5989 336.169 92.8827 333.514 94.5288C329.263 97.3086 323.261 99.7549 318.052 98.9071L318.399 87.1622C322.206 87.6831 326.067 87.6831 329.874 87.1622C333.271 86.9744 336.609 86.1936 339.738 84.8549L339.918 87.885Z" fill="#231F20"/>
<path d="M320.108 99.7688C319.364 99.7662 318.62 99.7058 317.885 99.5881C317.72 99.5584 317.57 99.4708 317.463 99.341C317.356 99.2111 317.299 99.0475 317.302 98.8792L317.663 87.1344C317.665 87.0376 317.689 86.9426 317.732 86.856C317.775 86.7695 317.837 86.6937 317.913 86.634C317.985 86.5669 318.071 86.518 318.165 86.4914C318.26 86.4648 318.359 86.4613 318.455 86.4811C322.197 86.9966 325.993 86.9966 329.735 86.4811C333.055 86.2961 336.318 85.5342 339.377 84.2294C339.477 84.1747 339.589 84.146 339.703 84.146C339.817 84.146 339.929 84.1747 340.03 84.2294C340.127 84.2851 340.209 84.3634 340.27 84.4578C340.33 84.5522 340.367 84.6598 340.377 84.7715L340.613 87.8432C340.628 87.9742 340.599 88.1064 340.53 88.2185C338.925 91.0672 336.62 93.4591 333.834 95.1681C329.776 97.9514 325.022 99.5449 320.108 99.7688ZM318.719 98.3789C322.887 98.8375 328.166 97.2252 333.097 94.0145C335.623 92.48 337.732 90.346 339.238 87.8015L339.071 85.8556C336.122 86.933 333.035 87.5881 329.902 87.8015C326.297 88.3057 322.643 88.3571 319.025 87.9544L318.719 98.3789Z" fill="#231F20"/>
<path d="M329.806 89.9559H327.764C323.127 90.0041 318.661 88.2084 315.348 84.9635C312.034 81.7186 310.144 77.2901 310.093 72.6514C310.284 67.2752 310.79 61.9149 311.607 56.5977C311.607 56.5977 319.623 53.7345 325.999 51.316C336.641 47.2991 339.503 41.5865 339.503 41.5865C339.836 45.3881 340.677 49.1279 342.003 52.7059C343.371 55.2691 344.956 57.7104 346.741 60.0031C346.741 60.0031 347.06 68.6206 347.088 72.2344C347.119 74.5341 346.696 76.8174 345.844 78.9535C344.992 81.0895 343.727 83.0364 342.122 84.6826C340.516 86.3288 338.602 87.6419 336.489 88.5468C334.376 89.4517 332.104 89.9306 329.806 89.9559Z" fill="white"/>
<path d="M327.568 90.6926C322.766 90.6891 318.161 88.7887 314.752 85.4048C311.344 82.0209 309.409 77.4274 309.369 72.6236C309.561 67.2099 310.071 61.8123 310.897 56.4588C310.912 56.33 310.962 56.2079 311.044 56.107C311.125 56.0061 311.233 55.9304 311.356 55.8889C311.439 55.8889 319.497 52.9561 325.748 50.5933C335.945 46.7432 338.835 41.2252 338.862 41.1696C338.902 40.9883 339.012 40.83 339.167 40.7286C339.322 40.6271 339.511 40.5907 339.693 40.6271C339.875 40.6635 340.036 40.7698 340.14 40.9232C340.244 41.0766 340.284 41.2649 340.252 41.4476C340.579 45.186 341.401 48.8644 342.697 52.3863C344.028 54.9341 345.571 57.3657 347.309 59.6556C347.4 59.7764 347.453 59.9215 347.462 60.0726C347.462 60.156 347.767 68.7457 347.809 72.3178C347.833 74.7138 347.385 77.0909 346.49 79.3134C345.595 81.5359 344.271 83.5602 342.594 85.2705C340.916 86.9809 338.919 88.3437 336.715 89.2812C334.511 90.2188 332.144 90.7125 329.749 90.7343H327.512L327.568 90.6926ZM312.287 57.1676C311.518 62.3015 311.054 67.4765 310.897 72.6653C310.952 77.0642 312.728 81.2664 315.845 84.3694C318.962 87.4723 323.171 89.2286 327.568 89.261H327.749H329.791C334.237 89.2097 338.481 87.3951 341.591 84.2158C344.701 81.0365 346.423 76.7523 346.378 72.3039C346.378 69.0793 346.086 61.7127 346.031 60.3228C344.256 58.0421 342.684 55.6097 341.335 53.0534C340.198 50.0018 339.411 46.8311 338.987 43.602C337.32 45.6729 333.597 49.2589 326.262 52.0388C320.802 54.0959 313.967 56.5422 312.245 57.1676H312.287Z" fill="#231F20"/>
<path d="M327.666 72.4985C326.905 72.4961 326.145 72.4544 325.388 72.3734C325.177 72.3482 324.974 72.275 324.796 72.1594C324.618 72.0437 324.469 71.8887 324.36 71.7062C322.971 69.5241 326.055 60.9065 327.013 58.3074C327.085 58.1311 327.221 57.9893 327.395 57.9115C327.568 57.8338 327.765 57.8263 327.944 57.8904C328.119 57.9589 328.261 58.0931 328.338 58.2644C328.416 58.4357 328.424 58.6306 328.361 58.8077C326.221 64.5898 324.929 70.2746 325.582 70.9696C327.197 71.1174 328.822 71.0895 330.431 70.8862C330.591 70.9028 330.742 70.9727 330.858 71.0849C330.974 71.197 331.05 71.3449 331.072 71.5049C331.094 71.665 331.063 71.8279 330.982 71.9677C330.901 72.1074 330.775 72.2161 330.625 72.2761C329.645 72.4141 328.656 72.4884 327.666 72.4985Z" fill="#231F20"/>
<path d="M336.615 64.553C337.282 64.5457 337.809 63.2081 337.791 61.5655C337.773 59.9228 337.217 58.5972 336.549 58.6045C335.882 58.6118 335.355 59.9494 335.374 61.5921C335.392 63.2347 335.947 64.5604 336.615 64.553Z" fill="#231F20"/>
<path d="M320.677 64.1724C321.345 64.1651 321.871 62.8275 321.853 61.1848C321.835 59.5422 321.279 58.2165 320.612 58.2239C319.944 58.2312 319.418 59.5688 319.436 61.2114C319.454 62.8541 320.01 64.1797 320.677 64.1724Z" fill="#231F20"/>
<path d="M318.011 99.5743C314.232 97.545 308.286 100.575 307.689 102.688C307.092 104.8 309.453 138.117 318.011 143.246C321.72 145.483 328.389 137.505 328.389 137.505C328.389 137.505 318.845 133.322 318.011 99.5743Z" fill="white"/>
<path d="M319.484 144.358C318.835 144.368 318.196 144.2 317.636 143.871C308.606 138.45 306.369 104.828 306.994 102.507C307.383 101.117 309.259 99.8105 310.884 99.1156C312.039 98.5428 313.306 98.2298 314.594 98.1986C315.883 98.1674 317.163 98.4187 318.344 98.9349C318.459 98.9941 318.554 99.084 318.621 99.1944C318.687 99.3049 318.721 99.4316 318.719 99.5603C319.525 132.182 328.597 136.81 328.68 136.852C328.78 136.896 328.869 136.963 328.939 137.048C329.009 137.132 329.058 137.232 329.083 137.339C329.107 137.447 329.106 137.559 329.082 137.667C329.058 137.774 329.011 137.876 328.944 137.964C328.319 138.701 323.457 144.358 319.484 144.358ZM315.107 99.6298C313.847 99.6472 312.604 99.9215 311.454 100.436C310.161 100.84 309.067 101.712 308.384 102.882C308.147 103.758 308.523 112.375 310.134 121.757C312.107 133.21 315.038 140.633 318.372 142.606C320.734 143.996 325.318 139.826 327.305 137.63C324.915 135.81 318.067 128.151 317.302 100.005C316.604 99.7331 315.857 99.6055 315.107 99.6298Z" fill="#231F20"/>
<path d="M339.072 99.5743C342.837 97.545 348.796 100.575 349.38 102.688C349.963 104.8 347.616 138.117 339.072 143.246C335.363 145.483 328.694 137.505 328.694 137.505C328.694 137.505 338.197 133.322 339.072 99.5743Z" fill="white"/>
<path d="M337.544 144.358C333.584 144.358 328.722 138.701 328.097 137.964C328.028 137.877 327.979 137.776 327.953 137.668C327.927 137.56 327.924 137.448 327.944 137.339C327.97 137.23 328.021 137.129 328.093 137.044C328.166 136.96 328.258 136.894 328.361 136.852C328.444 136.852 337.502 132.182 338.308 99.5603C338.312 99.4328 338.349 99.3084 338.414 99.199C338.48 99.0895 338.572 98.9986 338.683 98.9349C339.864 98.4187 341.144 98.1674 342.433 98.1986C343.722 98.2298 344.988 98.5428 346.143 99.1156C347.768 99.8105 349.644 101.075 350.033 102.507C350.672 104.828 348.435 138.45 339.391 143.871C338.833 144.203 338.193 144.371 337.544 144.358ZM329.736 137.658C331.82 139.965 336.28 144.066 338.655 142.634C342.003 140.633 344.934 133.21 346.893 121.785C348.063 115.562 348.654 109.243 348.658 102.91C347.962 101.746 346.865 100.875 345.573 100.464C343.754 99.5597 341.651 99.4148 339.725 100.061C338.961 128.179 332.126 135.837 329.736 137.658Z" fill="#231F20"/>
<path d="M319.025 75.5563L338.919 75.3339C338.919 75.3339 335.891 85.8418 328.278 84.8132C320.665 83.7847 319.025 75.5563 319.025 75.5563Z" fill="white"/>
<path d="M329.347 85.6055C328.961 85.6049 328.576 85.577 328.194 85.5221C320.164 84.438 318.344 75.7926 318.33 75.6953C318.31 75.5925 318.312 75.4864 318.337 75.3846C318.363 75.2829 318.41 75.1881 318.477 75.107C318.543 75.0259 318.627 74.9605 318.722 74.9156C318.816 74.8708 318.92 74.8475 319.025 74.8475L338.918 74.6251C339.029 74.6205 339.139 74.6435 339.238 74.6921C339.338 74.7406 339.424 74.8131 339.488 74.9031C339.556 74.9934 339.602 75.0978 339.624 75.2085C339.645 75.3192 339.642 75.4333 339.613 75.5424C339.488 75.9733 336.612 85.6055 329.347 85.6055ZM319.956 76.3347C320.595 78.3779 322.734 83.4094 328.374 84.1739C334.014 84.9383 336.987 78.6142 337.918 76.1401L319.956 76.3347Z" fill="#231F20"/>
<path d="M281.418 113.265L255.759 154.963L230.573 140.355L215.597 149.542C215.597 149.542 251.814 197.898 269.554 189.711C277.792 185.916 304.174 145.331 304.174 145.331L281.418 113.265Z" fill="#2945FF"/>
<path d="M355.02 187.946H354.812C354.722 187.919 354.639 187.874 354.567 187.815C354.494 187.755 354.434 187.682 354.39 187.599C354.347 187.517 354.319 187.426 354.311 187.333C354.302 187.24 354.312 187.146 354.34 187.056C354.492 186.528 370.093 133.947 362.911 114.933C362.845 114.749 362.854 114.545 362.938 114.368C363.021 114.191 363.172 114.054 363.356 113.988C363.54 113.921 363.743 113.931 363.92 114.014C364.097 114.098 364.234 114.248 364.3 114.433C371.663 133.891 356.423 185.319 355.771 187.459C355.718 187.613 355.616 187.744 355.48 187.832C355.344 187.921 355.182 187.961 355.02 187.946Z" fill="#231F20"/>
<path d="M291.838 190.434C291.663 190.435 291.495 190.372 291.364 190.256C291.233 190.141 291.15 189.981 291.129 189.808C291.06 189.35 284.683 143.009 282.544 132.571C282.51 132.385 282.549 132.194 282.653 132.036C282.756 131.879 282.916 131.766 283.1 131.723C283.285 131.686 283.478 131.724 283.637 131.828C283.796 131.932 283.907 132.094 283.947 132.279C286.1 142.773 292.477 189.155 292.546 189.614C292.57 189.801 292.519 189.991 292.405 190.142C292.291 190.292 292.122 190.392 291.935 190.42L291.838 190.434Z" fill="#231F20"/>
<path d="M368.773 169.71C368.682 169.729 368.587 169.729 368.495 169.71C368.322 169.636 368.184 169.497 368.111 169.323C368.039 169.149 368.037 168.954 368.106 168.779L383.207 132.21C383.281 132.036 383.42 131.898 383.593 131.826C383.767 131.753 383.963 131.751 384.138 131.82C384.225 131.856 384.304 131.908 384.371 131.974C384.438 132.04 384.491 132.118 384.527 132.205C384.563 132.291 384.582 132.384 384.582 132.478C384.582 132.572 384.563 132.665 384.527 132.752L369.44 169.321C369.376 169.441 369.279 169.541 369.162 169.61C369.044 169.678 368.909 169.713 368.773 169.71Z" fill="#231F20"/>
<path d="M403.295 115.378C403.151 115.375 403.011 115.33 402.893 115.248C402.774 115.167 402.682 115.052 402.628 114.919C400.877 110.499 395.487 108.345 395.446 108.317C395.354 108.283 395.271 108.232 395.199 108.166C395.128 108.099 395.07 108.02 395.03 107.931C394.989 107.843 394.966 107.747 394.962 107.65C394.959 107.553 394.974 107.456 395.008 107.365C395.042 107.273 395.093 107.19 395.159 107.118C395.225 107.047 395.305 106.989 395.393 106.949C395.481 106.908 395.577 106.885 395.674 106.881C395.771 106.878 395.868 106.893 395.96 106.927C396.21 107.024 401.975 109.331 403.961 114.335C403.999 114.422 404.019 114.517 404.019 114.612C404.019 114.707 404 114.801 403.962 114.888C403.924 114.976 403.869 115.054 403.799 115.119C403.73 115.184 403.648 115.234 403.559 115.266C403.482 115.325 403.391 115.364 403.295 115.378Z" fill="#231F20"/>
<path d="M403.295 105.593C403.185 105.592 403.076 105.568 402.975 105.523C402.812 105.425 402.694 105.266 402.647 105.081C402.6 104.896 402.628 104.7 402.725 104.536L408.824 94.0006C408.925 93.8399 409.083 93.7242 409.267 93.6776C409.451 93.631 409.645 93.6571 409.81 93.7504C409.972 93.8463 410.091 94.0016 410.14 94.1833C410.189 94.365 410.166 94.5588 410.074 94.7234L403.962 105.259C403.89 105.369 403.791 105.458 403.674 105.516C403.556 105.575 403.426 105.601 403.295 105.593Z" fill="#231F20"/>
<path d="M408.533 107.205C408.432 107.224 408.328 107.224 408.227 107.205C408.141 107.163 408.064 107.105 408.001 107.034C407.937 106.962 407.888 106.879 407.857 106.788C407.826 106.698 407.814 106.602 407.82 106.506C407.826 106.411 407.851 106.318 407.894 106.232L412.589 96.6971C412.672 96.5275 412.819 96.3979 412.998 96.3366C413.176 96.2754 413.372 96.2875 413.541 96.3705C413.711 96.4534 413.84 96.6003 413.901 96.7789C413.963 96.9574 413.95 97.153 413.868 97.3226L409.186 106.871C409.116 106.979 409.018 107.067 408.904 107.125C408.789 107.184 408.661 107.211 408.533 107.205Z" fill="#231F20"/>
<path d="M410.908 110.652C410.812 110.672 410.712 110.672 410.616 110.652C410.53 110.614 410.452 110.56 410.387 110.492C410.322 110.424 410.271 110.343 410.237 110.255C410.204 110.167 410.188 110.073 410.191 109.979C410.194 109.885 410.216 109.792 410.255 109.707L414.756 99.4769C414.835 99.3049 414.978 99.1708 415.155 99.1032C415.331 99.0356 415.527 99.0401 415.701 99.1155C415.875 99.1918 416.012 99.3339 416.082 99.5109C416.153 99.6879 416.15 99.8854 416.076 100.061L411.561 110.277C411.5 110.395 411.405 110.494 411.29 110.56C411.174 110.627 411.041 110.659 410.908 110.652Z" fill="#231F20"/>
<path d="M217.001 138.951C216.86 138.949 216.724 138.907 216.606 138.831C216.488 138.755 216.394 138.647 216.334 138.52C212.555 129.791 218.751 125.733 218.807 125.691C218.968 125.592 219.161 125.559 219.345 125.601C219.53 125.642 219.69 125.754 219.793 125.913C219.845 125.992 219.88 126.079 219.898 126.172C219.915 126.264 219.914 126.358 219.895 126.45C219.876 126.542 219.838 126.629 219.785 126.706C219.732 126.784 219.664 126.849 219.585 126.9C219.349 127.053 214.375 130.389 217.654 137.936C217.728 138.111 217.731 138.309 217.66 138.486C217.59 138.663 217.453 138.805 217.279 138.881C217.192 138.925 217.097 138.949 217.001 138.951Z" fill="#231F20"/>
<path d="M55.5168 335.542C55.5168 335.542 53.9609 343.159 56.3643 344.84C58.7676 346.522 79.4949 339.503 78.8975 337.14C78.3001 334.777 66.5473 333.568 66.5473 333.568C66.5473 333.568 57.3089 336.251 55.5168 335.542Z" fill="#2945FF"/>
<path d="M57.6841 345.758C57.0889 345.803 56.4927 345.683 55.9615 345.41C53.2664 343.52 54.6695 336.223 54.8362 335.403C54.8548 335.299 54.8971 335.202 54.9598 335.117C55.0224 335.033 55.1038 334.964 55.1974 334.916C55.2907 334.872 55.3928 334.849 55.4961 334.849C55.5995 334.849 55.7015 334.872 55.7948 334.916C56.7534 335.333 61.9213 334.221 66.3529 332.915C66.4397 332.894 66.5301 332.894 66.6169 332.915C69.4926 333.207 78.9115 334.374 79.5783 337.001C79.8006 337.905 78.8837 338.641 78.1891 339.128C74.5355 341.616 62.5187 345.758 57.6841 345.758ZM56.0727 336.334C55.5864 339.114 55.4058 343.284 56.7673 344.271C57.3368 344.674 61.0878 344.271 67.6171 342.158C74.1465 340.045 77.9807 337.891 78.2308 337.196C77.9668 336.278 72.6739 334.902 66.6169 334.277C64.9776 334.75 58.7677 336.515 56.0727 336.334Z" fill="#231F20"/>
<path d="M25.4396 335.542C25.4396 335.542 25.1895 344.354 26.1481 345.438C27.1066 346.522 48.3757 344.243 47.3754 341.366C46.3752 338.488 37.7759 335.542 37.7759 335.542H25.4396Z" fill="#2945FF"/>
<path d="M28.6208 346.383C27.5991 346.519 26.5598 346.35 25.634 345.897C24.606 344.743 24.6754 338.252 24.7449 335.514C24.7521 335.335 24.8284 335.165 24.9579 335.04C25.0874 334.916 25.26 334.847 25.4395 334.847H37.7758H38.012C38.915 335.166 46.8614 337.988 48.0283 341.088C48.1811 341.505 48.2506 342.325 46.9725 343.103C44.2913 344.743 33.886 346.383 28.6208 346.383ZM26.6343 344.91C28.3291 345.41 41.0544 344.215 45.5416 342.297C46.5974 341.838 46.7225 341.546 46.7225 341.546C46.0278 339.753 40.846 337.376 37.6647 336.237H26.1202C26.0508 339.962 26.2175 344.076 26.6343 344.91Z" fill="#231F20"/>
<path d="M24.4814 306.465L25.44 335.542C25.44 335.542 34.5394 339.128 37.7763 335.542L40.3047 303.573L24.4814 306.465Z" fill="white"/>
<path d="M33.1229 337.821C30.4109 337.734 27.7314 337.203 25.1904 336.251C25.0631 336.202 24.9531 336.116 24.874 336.005C24.795 335.894 24.7504 335.762 24.7459 335.625L23.7179 306.478C23.7152 306.31 23.7725 306.147 23.8794 306.017C23.9863 305.887 24.1358 305.799 24.3013 305.77L40.1802 302.892C40.2837 302.877 40.3893 302.884 40.4899 302.913C40.5905 302.942 40.6838 302.992 40.7637 303.059C40.8444 303.129 40.9068 303.217 40.9456 303.317C40.9843 303.416 40.9982 303.523 40.9859 303.629L38.4714 335.597C38.4606 335.75 38.4023 335.896 38.3047 336.014C37.6151 336.661 36.7976 337.156 35.9051 337.467C35.0126 337.778 34.0649 337.899 33.1229 337.821ZM26.1768 335.041C28.8163 335.987 34.79 337.502 37.1656 335.222L39.5967 304.407L25.1904 307.062L26.1768 335.041Z" fill="#231F20"/>
<path d="M66.5473 302.378V333.568C64.9673 334.689 63.1594 335.447 61.2526 335.789C59.3458 336.13 57.3873 336.045 55.5169 335.542L48.668 298.014L66.5473 302.378Z" fill="white"/>
<path d="M58.9617 336.695C57.7368 336.695 56.5175 336.531 55.3358 336.209C55.2092 336.176 55.0947 336.108 55.006 336.012C54.9173 335.915 54.8582 335.796 54.8357 335.667L47.9868 298.139C47.9683 298.026 47.9776 297.909 48.0139 297.8C48.0502 297.692 48.1124 297.593 48.1952 297.513C48.2788 297.434 48.3813 297.376 48.4931 297.347C48.6049 297.318 48.7223 297.318 48.8342 297.347L66.783 301.711C66.9349 301.743 67.0707 301.828 67.1671 301.949C67.2635 302.071 67.3143 302.223 67.3109 302.378V333.568C67.3094 333.671 67.2863 333.772 67.2432 333.866C67.2002 333.959 67.1381 334.042 67.0609 334.11C64.6975 335.798 61.8651 336.702 58.9617 336.695ZM56.1138 334.972C57.7699 335.349 59.4852 335.388 61.1565 335.084C62.8278 334.781 64.4203 334.142 65.8384 333.207V302.892L49.5288 298.945L56.1138 334.972Z" fill="#231F20"/>
<path d="M19.7585 225.376L17.5635 311.135C17.5635 311.135 52.0441 320.864 74.3411 306.465L58.4484 233.772L19.7585 225.376Z" fill="#231F20"/>
<path d="M42.8466 314.985C34.2564 314.958 25.7012 313.889 17.3682 311.802C17.2191 311.764 17.0878 311.675 16.9966 311.551C16.9055 311.426 16.8601 311.275 16.8681 311.121L19.0631 225.362C19.0625 225.26 19.0861 225.159 19.132 225.067C19.1779 224.975 19.2447 224.895 19.327 224.834C19.4066 224.772 19.4985 224.727 19.5968 224.703C19.695 224.679 19.7973 224.676 19.8966 224.695L58.6282 233.035C58.7581 233.062 58.8772 233.126 58.971 233.22C59.0648 233.314 59.1291 233.433 59.1561 233.563L75.0211 306.256C75.0519 306.395 75.0391 306.541 74.9844 306.673C74.9297 306.804 74.8358 306.916 74.7155 306.993C65.1437 313.22 53.2936 314.985 42.8466 314.985ZM18.2712 310.607C22.6195 311.718 53.2658 318.877 73.5624 306.131L57.8919 234.355L20.3828 226.238L18.2712 310.607Z" fill="#231F20"/>
<path d="M61.5186 209.337C61.5186 209.337 67.4506 187.848 70.3263 185.805C73.2019 183.762 78.7866 181.246 78.7866 184.123C78.7866 187.001 74.619 210.045 68.1729 209.323C61.7269 208.6 61.5186 209.337 61.5186 209.337Z" fill="white"/>
<path d="M68.4781 210.032H68.0891C63.4352 209.517 62.2405 209.781 62.0043 209.865C61.918 209.949 61.8107 210.009 61.6935 210.039C61.5763 210.068 61.4535 210.065 61.3375 210.032C61.1617 209.986 61.0108 209.873 60.9173 209.717C60.8239 209.561 60.7951 209.374 60.8374 209.198V209.073C61.5737 206.418 66.9361 187.362 69.8812 185.263C71.4233 184.165 76.2995 181.302 78.4667 182.483C78.7787 182.648 79.0365 182.9 79.209 183.208C79.3815 183.517 79.4614 183.868 79.4391 184.221C79.4391 186.834 76.3689 204.319 71.2149 208.92C70.4689 209.612 69.4955 210.008 68.4781 210.032ZM63.6436 208.378C65.1811 208.399 66.7163 208.505 68.242 208.697C68.6289 208.717 69.0155 208.653 69.3753 208.509C69.735 208.365 70.0593 208.145 70.3258 207.863C74.8686 203.805 78.0916 187.014 78.0916 184.235C78.0916 183.845 77.9526 183.762 77.8693 183.734C76.8968 183.22 73.4238 184.568 70.7287 186.514C68.8671 187.904 64.8522 200.219 62.5183 208.489C62.824 208.415 63.1991 208.378 63.6436 208.378Z" fill="#231F20"/>
<path d="M92.6227 204.208C92.0809 204.208 69.0059 200.622 69.0059 200.622L82.0646 167.069L107.599 169.64L92.6227 204.208Z" fill="white"/>
<path d="M92.6228 204.958C92.081 204.958 74.2711 202.179 68.8254 201.358C68.7224 201.344 68.6239 201.306 68.5374 201.249C68.4508 201.191 68.3783 201.114 68.3253 201.025C68.284 200.928 68.2627 200.824 68.2627 200.719C68.2627 200.614 68.284 200.51 68.3253 200.413L81.4118 166.805C81.4644 166.661 81.5649 166.54 81.6965 166.461C81.828 166.383 81.9826 166.352 82.1342 166.374L107.668 168.945C107.777 168.96 107.881 168.998 107.972 169.058C108.064 169.119 108.14 169.199 108.196 169.293C108.247 169.389 108.274 169.497 108.274 169.606C108.274 169.715 108.247 169.822 108.196 169.918L93.2757 204.541C93.2191 204.667 93.1272 204.773 93.0113 204.847C92.8953 204.921 92.7603 204.96 92.6228 204.958ZM69.8951 200.121C78.2304 201.4 89.7054 203.179 92.1921 203.513L106.543 170.238L82.4676 167.806L69.8951 200.121Z" fill="#231F20"/>
<path d="M15.7569 148.847C13.471 148.883 11.2164 149.385 9.13029 150.32C5.50441 151.835 1.97578 154.49 0.975535 158.257C0.183676 161.342 1.19781 164.609 2.55925 167.486C3.92069 170.363 5.61555 173.157 6.31016 176.27C7.00477 179.384 6.39351 183.053 3.86512 184.985C7.21681 183.899 10.3698 182.274 13.2007 180.176C14.879 178.949 16.0306 177.131 16.4237 175.089C16.5029 173.397 16.1791 171.711 15.479 170.168C14.4574 167.868 13.8372 165.409 13.6453 162.899C13.5628 161.64 13.8243 160.383 14.4019 159.261C14.9795 158.14 15.8513 157.197 16.9238 156.533C18.8688 155.519 25.0647 155.95 24.2728 152.364C23.7172 149.653 17.9658 148.889 15.7569 148.847Z" fill="white"/>
<path d="M3.86517 185.68C3.7416 185.682 3.61981 185.651 3.51236 185.589C3.40491 185.528 3.31569 185.44 3.25391 185.333C3.17426 185.184 3.14871 185.013 3.18167 184.848C3.21464 184.683 3.30405 184.535 3.43451 184.429C5.93512 182.525 6.21296 178.869 5.62949 176.409C5.02937 174.179 4.15685 172.032 3.03164 170.016C2.65654 169.279 2.28145 168.542 1.92026 167.792C0.100371 163.914 -0.399751 160.842 0.308755 158.062C1.53127 153.35 6.19907 150.779 8.86638 149.723C11.0519 148.74 13.4166 148.22 15.8125 148.194C18.1186 148.194 24.2729 149.028 25.0092 152.364C25.1035 152.729 25.1226 153.109 25.0653 153.482C25.008 153.855 24.8754 154.212 24.6758 154.532C23.7589 155.922 21.5778 156.311 19.6607 156.658C18.8527 156.756 18.0596 156.952 17.299 157.242C16.346 157.852 15.5738 158.706 15.0631 159.715C14.5524 160.725 14.3219 161.853 14.3955 162.983C14.575 165.308 15.1432 167.587 16.0765 169.724L16.1876 170.016C16.9301 171.663 17.2683 173.465 17.174 175.27C16.7633 177.497 15.5218 179.484 13.7009 180.829C10.8081 182.969 7.59036 184.631 4.1708 185.75C4.06531 185.747 3.9614 185.723 3.86517 185.68ZM15.5902 149.542C13.4536 149.593 11.348 150.065 9.39429 150.932C6.96314 151.947 2.726 154.268 1.6563 158.396C1.03115 160.814 1.51738 163.594 3.18445 167.166C3.53176 167.903 3.89295 168.64 4.26804 169.362C5.47284 171.479 6.40634 173.739 7.0465 176.09C7.62364 178.515 7.33875 181.065 6.24074 183.303C8.60999 182.417 10.8305 181.175 12.8257 179.62C14.3222 178.49 15.3587 176.855 15.743 175.019C15.8077 173.435 15.4933 171.857 14.8262 170.419L14.715 170.113C13.7174 167.832 13.1205 165.397 12.9507 162.913C12.8745 161.532 13.1741 160.157 13.8175 158.933C14.4609 157.709 15.4241 156.683 16.6044 155.963C17.4939 155.599 18.4284 155.356 19.3828 155.241C20.9388 154.963 22.8837 154.601 23.4671 153.712C23.5708 153.553 23.6371 153.374 23.6612 153.186C23.6853 152.998 23.6664 152.807 23.6061 152.628C23.1198 150.432 18.0492 149.639 15.7569 149.598H15.6041L15.5902 149.542Z" fill="#231F20"/>
<path d="M18.4802 149.778C17.6604 151.042 17.2931 152.546 17.4382 154.045C17.4618 155.04 17.7757 156.007 18.3412 156.825C18.7157 157.31 19.1987 157.699 19.7514 157.962C20.304 158.225 20.9107 158.355 21.5226 158.34C22.0679 158.364 22.6011 158.175 23.009 157.812C23.3183 157.479 23.5256 157.064 23.6064 156.617C24.4399 153.475 22.6756 143.899 18.4802 149.778Z" fill="#231F20"/>
<path d="M21.4244 158.994C20.7271 158.999 20.0376 158.847 19.4073 158.549C18.777 158.25 18.2223 157.813 17.7847 157.27C17.1311 156.335 16.7686 155.228 16.7427 154.087C16.5847 152.427 17.0016 150.764 17.9236 149.375C19.5907 147.012 20.9799 147.012 21.8273 147.415C24.189 148.513 24.9253 154.365 24.2862 156.756C24.1674 157.324 23.8932 157.849 23.4944 158.271C22.9602 158.757 22.2576 159.017 21.5356 158.994H21.4244ZM20.9382 148.611C20.2714 148.611 19.549 149.556 19.035 150.181C18.3094 151.311 17.9863 152.653 18.1181 153.99C18.1291 154.856 18.3896 155.7 18.8682 156.422C19.1792 156.815 19.5801 157.128 20.037 157.333C20.494 157.539 20.9936 157.632 21.4939 157.604C21.8628 157.616 22.225 157.503 22.5219 157.284C22.7271 157.025 22.8654 156.719 22.9248 156.394C23.4666 154.365 22.7303 149.445 21.2299 148.666C21.1376 148.628 21.0382 148.609 20.9382 148.611Z" fill="#231F20"/>
<path d="M37.7205 171.253C37.1126 171.844 36.361 172.267 35.54 172.479C34.719 172.691 33.8569 172.685 33.0388 172.462C31.1463 172.098 29.3747 171.266 27.8848 170.043C24.9603 167.743 22.7349 164.672 21.4588 161.175C20.1827 157.679 19.9063 153.896 20.6608 150.251C22.3001 142.87 30.1075 135.865 37.9289 139.131C39.2488 139.693 40.4301 140.536 41.39 141.602C42.3499 142.668 43.0652 143.931 43.4858 145.303C44.0366 145.147 44.6208 145.157 45.1664 145.33C45.712 145.502 46.195 145.831 46.556 146.276C48.5148 148.43 48.3064 150.626 47.07 153.045C45.0417 157.006 42.6106 160.759 40.7629 164.803C39.6654 167.18 39.1514 169.752 37.7205 171.253Z" fill="white"/>
<path d="M34.3728 173.268C33.9072 173.263 33.4427 173.221 32.9835 173.143C30.9752 172.766 29.0934 171.892 27.51 170.599C24.4677 168.227 22.1527 165.047 20.8288 161.423C19.5049 157.798 19.2254 153.874 20.0221 150.098C20.5644 147.756 21.5946 145.555 23.0453 143.639C24.496 141.723 26.3346 140.135 28.4408 138.979C29.9314 138.16 31.5877 137.688 33.286 137.599C34.9842 137.51 36.6807 137.806 38.2487 138.464C39.5515 139.023 40.7271 139.841 41.7039 140.868C42.6807 141.896 43.4383 143.111 43.9307 144.441C44.518 144.406 45.1054 144.507 45.6474 144.736C46.1895 144.965 46.6716 145.316 47.0564 145.761C49.6265 148.611 48.6401 151.432 47.6816 153.323C46.8341 154.963 45.9172 156.575 45.0281 158.146C43.7639 160.383 42.4581 162.691 41.3745 165.095C41.0272 165.86 40.7354 166.652 40.4576 167.416C40.0164 168.993 39.2602 170.463 38.2348 171.739C37.7344 172.251 37.1319 172.651 36.4665 172.915C35.8011 173.178 35.0877 173.299 34.3728 173.268ZM33.8865 139.006C32.1905 139.026 30.5235 139.45 29.0243 140.243C27.1021 141.3 25.4236 142.75 24.0977 144.498C22.7718 146.246 21.8281 148.253 21.3279 150.39C20.6116 153.906 20.8813 157.553 22.1072 160.926C23.333 164.299 25.4673 167.266 28.2741 169.501C29.6781 170.649 31.3435 171.432 33.1225 171.781C35.5675 172.156 36.6233 171.392 37.1929 170.78C38.0767 169.637 38.7323 168.335 39.1239 166.944C39.4157 166.152 39.7213 165.332 40.0825 164.525C41.1939 162.107 42.5136 159.772 43.7917 157.576C44.6808 156.019 45.5838 154.407 46.4174 152.794C47.6816 150.32 47.5565 148.527 46.0006 146.804C45.7323 146.465 45.3718 146.212 44.9626 146.073C44.5534 145.935 44.1129 145.919 43.6945 146.025C43.5158 146.095 43.3175 146.095 43.1388 146.025C42.9698 145.931 42.8413 145.778 42.7776 145.595C42.4003 144.302 41.7411 143.109 40.8475 142.102C39.9538 141.095 38.848 140.299 37.6097 139.771C36.4316 139.271 35.166 139.012 33.8865 139.006Z" fill="#231F20"/>
<path d="M44.5557 154.407C44.5557 154.407 49.1679 158.771 48.7233 159.966C48.2788 161.162 45.7504 161.037 45.7504 161.037" fill="white"/>
<path d="M46.07 161.787H45.7088C45.6175 161.782 45.5282 161.759 45.4459 161.719C45.3636 161.679 45.2901 161.623 45.2294 161.555C45.1688 161.486 45.1222 161.406 45.0924 161.32C45.0626 161.233 45.0502 161.142 45.0558 161.051C45.0701 160.868 45.1548 160.697 45.2921 160.575C45.4295 160.453 45.6087 160.39 45.7921 160.397C46.6534 160.397 47.8898 160.272 48.0704 159.786C48.251 159.299 46.2228 157.006 44.0834 154.921C43.9552 154.789 43.8835 154.612 43.8835 154.428C43.8835 154.243 43.9552 154.066 44.0834 153.934C44.148 153.869 44.2248 153.817 44.3094 153.782C44.3941 153.747 44.4848 153.729 44.5765 153.729C44.6682 153.729 44.759 153.747 44.8437 153.782C44.9283 153.817 45.0052 153.869 45.0697 153.934C47.3342 156.075 49.9181 158.91 49.4041 160.3C48.8901 161.69 46.9035 161.787 46.07 161.787Z" fill="#231F20"/>
<path d="M45.7637 182.316C40.3041 182.455 31.3158 176.493 31.2602 176.284C30.4533 172.709 29.8274 169.095 29.3848 165.457C30.6459 165.039 31.7692 164.286 32.6334 163.276C33.4976 162.267 34.07 161.041 34.2887 159.73C35.4557 154.782 40.0957 154.254 42.249 147.805C44.8329 149.069 45.0274 152.961 45.6248 155.408C46.4028 158.855 47.014 162.357 47.7086 165.776C48.0976 167.972 42.4713 169.335 41.3321 168.918C42.4018 172.156 42.4018 172.156 45.7637 182.316Z" fill="white"/>
<path d="M45.5977 183.011C40.3742 183.011 30.858 177.452 30.5941 176.465C29.7808 172.857 29.1502 169.211 28.7047 165.54C28.6834 165.368 28.7272 165.194 28.8275 165.053C28.9277 164.911 29.0772 164.812 29.2465 164.776C29.3716 164.776 32.5668 163.942 33.6087 159.508C34.2251 157.322 35.5011 155.381 37.2624 153.948C39.2439 152.23 40.7387 150.02 41.5967 147.541C41.6228 147.445 41.6719 147.357 41.7397 147.284C41.8074 147.211 41.8919 147.156 41.9857 147.124C42.075 147.082 42.1722 147.061 42.2705 147.061C42.3688 147.061 42.466 147.082 42.5553 147.124C45.0142 148.333 45.5838 151.405 46.0423 153.879C46.1256 154.351 46.209 154.796 46.3062 155.269C47.0703 158.688 47.6954 162.218 48.3901 165.665C48.4456 166.083 48.3842 166.509 48.2125 166.894C48.0408 167.279 47.7656 167.609 47.4176 167.847C45.9122 168.913 44.1445 169.548 42.3052 169.682C43.111 172.128 43.4305 173.115 46.4729 182.191C46.5082 182.295 46.5191 182.405 46.5046 182.514C46.4902 182.622 46.4508 182.726 46.3896 182.817C46.3217 182.901 46.2374 182.97 46.1419 183.02C46.0463 183.07 45.9415 183.101 45.8339 183.109L45.5977 183.011ZM31.8861 175.909C33.053 176.812 40.0547 181.121 44.792 181.58C41.7495 172.365 41.7079 172.267 40.6243 169.07C40.5839 168.947 40.5794 168.815 40.6114 168.69C40.6434 168.564 40.7105 168.45 40.8049 168.362C40.8987 168.271 41.0163 168.208 41.1441 168.181C41.2719 168.154 41.4047 168.164 41.5273 168.209C43.3139 168.24 45.0646 167.705 46.5285 166.68C46.9036 166.36 47.0703 166.068 47.0147 165.804C46.4035 162.329 45.7088 158.855 44.9448 155.463C44.8475 155.046 44.7642 154.587 44.6808 154.073C44.3335 152.197 43.9028 149.903 42.597 148.75C41.6267 151.094 40.1348 153.185 38.2348 154.865C36.666 156.127 35.5216 157.839 34.9562 159.772C34.724 161.108 34.163 162.366 33.3239 163.431C32.4848 164.496 31.3939 165.336 30.1495 165.874C30.3857 167.653 31.1081 172.934 31.8861 175.909Z" fill="#231F20"/>
<path d="M47.0277 163.177C46.7473 163.479 46.4051 163.716 46.0245 163.874C45.6438 164.031 45.2338 164.104 44.8223 164.088C44.4108 164.072 44.0076 163.968 43.6402 163.782C43.2728 163.596 42.9498 163.333 42.6934 163.01" fill="white"/>
<path d="M44.8192 164.831H44.6942C44.1982 164.793 43.7162 164.649 43.2802 164.409C42.8443 164.169 42.4643 163.839 42.1658 163.441C42.0841 163.38 42.0167 163.302 41.9685 163.213C41.9203 163.123 41.8924 163.024 41.8868 162.922C41.8812 162.82 41.898 162.718 41.9361 162.624C41.9742 162.529 42.0326 162.444 42.1072 162.375C42.1817 162.305 42.2706 162.253 42.3676 162.222C42.4646 162.191 42.5672 162.181 42.6682 162.194C42.7693 162.207 42.8662 162.242 42.9523 162.297C43.0383 162.351 43.1113 162.424 43.166 162.51C43.3444 162.753 43.571 162.956 43.8316 163.106C44.0922 163.257 44.3812 163.352 44.6803 163.386C45.3551 163.359 45.9972 163.087 46.4863 162.621C46.6161 162.494 46.7907 162.423 46.9725 162.423C47.1543 162.423 47.3289 162.494 47.4587 162.621C47.5238 162.686 47.5755 162.763 47.6108 162.847C47.6461 162.932 47.6642 163.023 47.6642 163.115C47.6642 163.206 47.6461 163.297 47.6108 163.382C47.5755 163.467 47.5238 163.543 47.4587 163.608C46.7487 164.312 45.8148 164.744 44.8192 164.831Z" fill="#231F20"/>
<path d="M41.3322 168.862C40.5035 169.004 39.6545 168.975 38.8375 168.776C38.0205 168.578 37.2526 168.214 36.5811 167.708C36.5811 167.708 37.9703 172.921 42.8187 173.393L41.3322 168.862Z" fill="#231F20"/>
<path d="M42.8184 174.088C37.581 173.574 36.039 168.125 35.9834 167.889C35.943 167.744 35.951 167.589 36.0061 167.449C36.0612 167.308 36.1606 167.19 36.289 167.111C36.4188 167.034 36.5696 167.001 36.7194 167.016C36.8693 167.031 37.0105 167.093 37.1226 167.194C37.7175 167.626 38.3922 167.936 39.1076 168.105C39.823 168.275 40.5649 168.3 41.2902 168.181C41.4533 168.152 41.6212 168.182 41.7639 168.267C41.9065 168.351 42.0144 168.483 42.0682 168.64L43.5547 173.185C43.5946 173.294 43.6054 173.411 43.5859 173.526C43.5664 173.641 43.5173 173.748 43.4435 173.838C43.3667 173.926 43.27 173.995 43.1612 174.039C43.0525 174.082 42.935 174.099 42.8184 174.088ZM38.0256 169.307C38.8111 170.818 40.1578 171.961 41.7765 172.49L40.8318 169.613C39.8856 169.681 38.9348 169.578 38.0256 169.307Z" fill="#231F20"/>
<path d="M43.2185 154.26C43.4912 154.216 43.6229 153.622 43.5126 152.932C43.4023 152.242 43.0918 151.718 42.819 151.762C42.5463 151.806 42.4146 152.4 42.5249 153.09C42.6352 153.78 42.9457 154.303 43.2185 154.26Z" fill="#231F20"/>
<path d="M37.9849 157.784C37.6839 156.95 37.1601 156.215 36.4706 155.658C36.0058 155.157 35.467 154.73 34.873 154.393C34.5729 154.224 34.239 154.123 33.8954 154.099C33.5517 154.075 33.2071 154.128 32.8864 154.254C32.6155 154.394 32.3775 154.591 32.1883 154.831C31.9991 155.07 31.8629 155.347 31.7889 155.644C31.6498 156.238 31.6498 156.856 31.7889 157.451C32.0303 158.756 32.6123 159.975 33.476 160.983C34.3396 161.991 35.4542 162.753 36.7068 163.191L36.4706 163.024" fill="white"/>
<path d="M36.6508 163.9C36.5867 163.914 36.5203 163.914 36.4563 163.9C35.0915 163.411 33.8777 162.574 32.9349 161.472C31.992 160.371 31.3527 159.042 31.08 157.617C30.9173 156.927 30.9173 156.209 31.08 155.519C31.1782 155.126 31.3609 154.76 31.6152 154.446C31.8696 154.131 32.1895 153.876 32.5526 153.698C32.9654 153.523 33.4128 153.444 33.8606 153.468C34.3084 153.492 34.7448 153.618 35.1365 153.837C35.7958 154.208 36.3953 154.677 36.9147 155.227C37.6935 155.877 38.2796 156.728 38.6096 157.687C38.6326 157.775 38.6378 157.868 38.6251 157.958C38.6124 158.049 38.5819 158.136 38.5355 158.215C38.489 158.294 38.4274 158.362 38.3543 158.417C38.2812 158.472 38.198 158.512 38.1095 158.535C37.9291 158.577 37.7393 158.547 37.5809 158.451C37.4225 158.354 37.308 158.2 37.262 158.021C36.9787 157.303 36.4968 156.681 35.8728 156.228C35.4684 155.777 35.0004 155.389 34.4836 155.074C34.2755 154.952 34.0431 154.878 33.8029 154.856C33.5628 154.835 33.3209 154.866 33.0944 154.949C32.9164 155.049 32.7607 155.185 32.6365 155.347C32.5124 155.51 32.4224 155.696 32.372 155.894C32.266 156.384 32.266 156.891 32.372 157.381C32.583 158.47 33.0512 159.492 33.7376 160.362C34.4239 161.233 35.3085 161.926 36.3174 162.385C36.4752 162.377 36.6314 162.421 36.7619 162.51L36.9286 162.621C37.069 162.719 37.1717 162.862 37.2197 163.026C37.2677 163.191 37.2582 163.367 37.1926 163.525C37.1404 163.627 37.0636 163.715 36.969 163.781C36.8744 163.846 36.7651 163.887 36.6508 163.9Z" fill="#231F20"/>
<path d="M48.7227 177.646C48.7227 177.646 30.0932 170.113 24.2446 176.687C18.3959 183.262 14.2838 208.725 16.7705 241.736C37.47 248.352 62.2677 234.175 62.2677 234.175C62.2677 234.175 57.7388 181.705 48.7227 177.646Z" fill="#2945FF"/>
<path d="M87.7461 199.204C87.7461 199.204 93.5253 186.458 94.6089 187.723C95.6925 188.988 93.7059 194.909 93.7059 194.909C93.7059 194.909 99.4573 187.001 100.721 187.626C101.986 188.251 101.083 194.576 98.1931 199.204C95.3035 203.833 91.7332 209.323 91.7332 209.323L87.7461 199.204Z" fill="white"/>
<path d="M91.7896 210.018H91.7063C91.5808 210.006 91.461 209.959 91.3605 209.883C91.2599 209.807 91.1824 209.704 91.1367 209.587L87.1635 199.468C87.1259 199.385 87.1064 199.295 87.1064 199.204C87.1064 199.113 87.1259 199.023 87.1635 198.94C89.5808 193.589 92.7204 187.181 94.318 186.959C94.4769 186.936 94.639 186.953 94.7894 187.009C94.9399 187.064 95.074 187.157 95.1793 187.278C95.8462 188.071 95.7072 189.919 95.346 191.657C99.6249 186.305 100.681 186.834 101.07 187.028C101.267 187.139 101.438 187.291 101.572 187.473C101.706 187.655 101.8 187.863 101.848 188.085C102.459 190.197 101.292 195.562 98.833 199.579C95.9851 204.249 92.387 209.67 92.3453 209.726C92.2806 209.813 92.197 209.885 92.1008 209.935C92.0046 209.986 91.8982 210.014 91.7896 210.018ZM88.5666 199.232L91.9424 207.822C93.1372 205.987 95.5961 202.262 97.6661 198.843C100.292 194.548 100.986 189.336 100.445 188.335C99.4582 188.78 96.5408 192.199 94.2624 195.284C94.165 195.417 94.0235 195.511 93.8631 195.55C93.7028 195.588 93.5341 195.568 93.3872 195.493C93.2414 195.416 93.127 195.291 93.0636 195.138C93.0002 194.986 92.9918 194.817 93.0399 194.659C93.7706 192.705 94.1697 190.643 94.2208 188.557C91.9914 191.931 90.0799 195.504 88.511 199.232H88.5666Z" fill="#231F20"/>
<path d="M40.8182 187.598C40.8182 187.598 53.2379 224.306 66.1855 223.222C79.1331 222.138 94.5674 208.711 94.5674 208.711L87.1072 197.439C87.1072 197.439 68.1721 209.323 64.3934 204.75C59.5005 198.005 55.5467 190.627 52.6405 182.817C50.1121 175.909 38.9983 175.853 40.8182 187.598Z" fill="#2945FF"/>
<path d="M67.9912 193.756C68.8615 191.911 70.0145 190.213 71.4087 188.724C73.2008 187.112 78.6049 183.984 77.8825 186.806C77.1601 189.627 72.9646 192.366 72.9646 192.366C72.9646 192.366 72.0339 194.159 70.3668 196.688" fill="white"/>
<path d="M70.3676 197.342C70.2325 197.341 70.1012 197.297 69.9925 197.216C69.9157 197.167 69.8495 197.103 69.7979 197.028C69.7463 196.953 69.7104 196.868 69.6922 196.778C69.6741 196.689 69.6741 196.596 69.6923 196.507C69.7105 196.418 69.7464 196.333 69.798 196.257C71.4095 193.797 72.3403 192.018 72.3542 192.004C72.4098 191.898 72.491 191.807 72.5904 191.74C72.5904 191.74 76.5636 189.155 77.2026 186.625C77.2303 186.516 77.2303 186.401 77.2026 186.292C76.6191 186.111 73.4239 187.807 71.8263 189.238C70.5034 190.671 69.4072 192.297 68.5755 194.061C68.5407 194.15 68.4879 194.231 68.4204 194.298C68.353 194.366 68.2724 194.419 68.1837 194.454C68.0949 194.489 67.9999 194.505 67.9046 194.502C67.8092 194.498 67.7156 194.475 67.6295 194.434C67.5435 194.393 67.4668 194.335 67.4043 194.263C67.3418 194.191 67.2948 194.106 67.2662 194.015C67.2377 193.924 67.2282 193.828 67.2383 193.733C67.2485 193.638 67.2781 193.547 67.3252 193.464C68.2459 191.53 69.47 189.756 70.9511 188.21C71.9791 187.278 76.3691 184.165 78.0361 185.18C78.3557 185.374 78.8419 185.861 78.5502 186.973C77.8556 189.753 74.2991 192.268 73.4934 192.81C73.2294 193.297 72.3542 194.909 70.9511 196.98C70.8924 197.085 70.8081 197.173 70.706 197.236C70.604 197.299 70.4875 197.336 70.3676 197.342Z" fill="#231F20"/>
<path d="M66.4225 223.055C63.6883 223.06 61.0058 222.31 58.6706 220.887C50.5714 216.022 39.402 190.948 38.9297 189.878C38.8855 189.794 38.8589 189.702 38.8517 189.607C38.8444 189.512 38.8565 189.417 38.8874 189.328C38.9182 189.238 38.9671 189.155 39.031 189.085C39.0949 189.015 39.1724 188.959 39.2589 188.92C39.3453 188.881 39.4389 188.86 39.5337 188.859C39.6285 188.857 39.7226 188.875 39.8102 188.912C39.8978 188.948 39.977 189.002 40.043 189.07C40.109 189.138 40.1604 189.219 40.1939 189.308C40.3051 189.572 51.6689 215.049 59.393 219.692C67.1171 224.334 76.3138 219.817 84.9548 214.132C85.03 214.08 85.1148 214.044 85.2042 214.026C85.2937 214.008 85.3858 214.008 85.4752 214.026C85.5647 214.044 85.6495 214.08 85.7248 214.132C85.8 214.183 85.8642 214.25 85.9133 214.326C86.0138 214.48 86.0498 214.666 86.0134 214.846C85.977 215.026 85.8711 215.184 85.7188 215.285C79.634 219.344 72.8824 223.055 66.4225 223.055Z" fill="#231F20"/>
<path d="M108.46 336.668V347.37C108.46 347.37 132.952 345.23 132.396 344.132C131.841 343.033 119.56 338.377 119.56 338.377L108.46 336.668Z" fill="#2945FF"/>
<path d="M108.46 347.996C108.287 347.991 108.12 347.927 107.988 347.815C107.918 347.748 107.863 347.668 107.825 347.58C107.787 347.492 107.766 347.397 107.766 347.301V336.668C107.766 336.568 107.788 336.47 107.828 336.379C107.869 336.288 107.928 336.207 108.002 336.14C108.079 336.077 108.168 336.032 108.264 336.005C108.359 335.979 108.459 335.973 108.557 335.987L119.671 337.627C119.717 337.614 119.765 337.614 119.81 337.627C125.548 339.795 132.48 342.617 133.036 343.715C133.087 343.831 133.114 343.956 133.114 344.083C133.114 344.21 133.087 344.335 133.036 344.451C132.813 344.84 132.23 345.841 108.543 347.954L108.46 347.996ZM109.155 337.474V346.536C118.268 345.73 128.09 344.632 131.091 343.923C129.215 342.908 124.144 340.782 119.379 338.989L109.155 337.474Z" fill="#231F20"/>
<path d="M108.391 327.3V336.668L119.491 338.308L119.893 327.3H108.391Z" fill="white"/>
<path d="M119.49 339.03H119.379L108.265 337.376C108.1 337.356 107.947 337.275 107.837 337.15C107.727 337.024 107.667 336.862 107.668 336.695V327.327C107.668 327.143 107.741 326.966 107.871 326.836C108.002 326.706 108.178 326.632 108.363 326.632H119.865C119.959 326.632 120.052 326.651 120.138 326.688C120.224 326.724 120.302 326.778 120.367 326.846C120.432 326.913 120.482 326.993 120.515 327.081C120.549 327.168 120.564 327.262 120.56 327.355L120.157 338.363C120.152 338.461 120.127 338.557 120.084 338.646C120.041 338.734 119.981 338.813 119.907 338.878C119.787 338.969 119.641 339.023 119.49 339.03ZM109.085 336.098L118.81 337.488L119.157 327.967H109.071L109.085 336.098Z" fill="#231F20"/>
<path d="M141.162 327.619L142.399 340.115L153.568 339.712L152.984 327.619H141.162Z" fill="white"/>
<path d="M142.399 340.81C142.227 340.811 142.06 340.747 141.931 340.631C141.803 340.516 141.722 340.356 141.705 340.184L140.468 327.675C140.46 327.577 140.472 327.478 140.503 327.385C140.534 327.292 140.584 327.206 140.649 327.133C140.715 327.063 140.795 327.007 140.883 326.969C140.971 326.93 141.067 326.911 141.163 326.91H152.985C153.165 326.91 153.337 326.98 153.467 327.104C153.596 327.228 153.673 327.398 153.68 327.578L154.263 339.656C154.268 339.84 154.203 340.018 154.083 340.156C154.021 340.225 153.947 340.28 153.863 340.318C153.779 340.357 153.689 340.377 153.597 340.379L142.483 340.796L142.399 340.81ZM141.927 328.3L143.025 339.42L152.916 339.031L152.388 328.314L141.927 328.3Z" fill="#231F20"/>
<path d="M151.735 227.281L154.083 329.704H139.51L133.133 258.735L121.047 330.858L107.071 330.093L109.947 236.273L151.735 227.281Z" fill="#231F20"/>
<path d="M121.046 331.553L107.071 330.788C106.981 330.785 106.893 330.763 106.812 330.726C106.731 330.688 106.658 330.635 106.597 330.569C106.536 330.503 106.489 330.426 106.459 330.342C106.428 330.258 106.414 330.169 106.418 330.079L109.293 236.246C109.299 236.092 109.355 235.945 109.453 235.827C109.551 235.708 109.685 235.626 109.835 235.592L151.526 226.599C151.627 226.58 151.732 226.583 151.832 226.607C151.933 226.631 152.027 226.676 152.109 226.738C152.192 226.8 152.258 226.879 152.304 226.971C152.35 227.063 152.374 227.164 152.373 227.267L154.721 329.69C154.72 329.875 154.651 330.054 154.526 330.191C154.391 330.319 154.213 330.393 154.026 330.399H139.523C139.348 330.4 139.179 330.334 139.05 330.216C138.922 330.097 138.842 329.934 138.828 329.76L132.924 264.183L121.727 330.983C121.7 331.144 121.617 331.289 121.492 331.394C121.367 331.499 121.209 331.555 121.046 331.553ZM107.779 329.44L120.463 330.135L132.452 258.623C132.478 258.461 132.561 258.314 132.685 258.207C132.81 258.1 132.968 258.041 133.132 258.04C133.302 258.049 133.462 258.118 133.584 258.236C133.707 258.353 133.783 258.51 133.799 258.679L140.12 329.009H153.346L151.026 228.142L110.599 236.843L107.779 329.44Z" fill="#231F20"/>
<path d="M175.282 191.587C177.746 189.837 180.483 188.508 183.382 187.654C186.049 186.875 189.063 184.123 189.397 181.177C189.418 180.705 189.352 180.234 189.202 179.787C188.762 178.335 188.107 176.957 187.257 175.7C187.176 175.563 187.061 175.449 186.924 175.367C186.632 175.242 186.313 175.45 186.077 175.631L181.77 178.981C181.799 178.05 181.739 177.119 181.589 176.201C181.575 175.876 181.447 175.566 181.228 175.325C181.057 175.207 180.853 175.143 180.645 175.143C180.436 175.143 180.233 175.207 180.061 175.325C179.718 175.557 179.429 175.861 179.214 176.215C177.575 178.536 176.435 181.552 174.699 183.706C174.352 184.123 170.906 186.806 171.142 187.056L175.282 191.587Z" fill="white"/>
<path d="M175.282 192.282C175.184 192.281 175.088 192.26 175 192.219C174.911 192.178 174.832 192.119 174.768 192.046L170.6 187.404C170.484 187.253 170.425 187.066 170.433 186.875C170.433 186.389 170.836 186.014 173.073 184.096C173.517 183.72 174.059 183.262 174.17 183.137C175.13 181.886 175.959 180.54 176.643 179.12C177.239 177.94 177.907 176.798 178.644 175.7C178.915 175.264 179.281 174.894 179.713 174.616C180.013 174.428 180.364 174.338 180.718 174.358C181.071 174.378 181.409 174.507 181.686 174.727C182.024 175.079 182.234 175.535 182.284 176.02C182.353 176.507 182.422 177.021 182.45 177.521L185.645 175.033C185.848 174.838 186.1 174.701 186.374 174.638C186.648 174.574 186.934 174.586 187.201 174.672C187.461 174.802 187.679 175.005 187.827 175.256C188.728 176.564 189.413 178.01 189.855 179.537C190.046 180.08 190.127 180.657 190.091 181.232C189.716 184.526 186.423 187.473 183.576 188.307C180.763 189.146 178.103 190.432 175.699 192.115C175.583 192.218 175.436 192.276 175.282 192.282ZM172.017 186.889L175.393 190.656C177.789 189.043 180.417 187.806 183.187 186.987C185.618 186.278 188.41 183.734 188.743 181.093C188.763 180.702 188.706 180.31 188.577 179.94C188.162 178.553 187.534 177.24 186.715 176.048L186.548 176.173L182.256 179.509C182.146 179.579 182.018 179.617 181.888 179.617C181.757 179.617 181.629 179.579 181.519 179.509C181.4 179.45 181.3 179.359 181.232 179.246C181.163 179.133 181.128 179.002 181.13 178.869C181.158 177.981 181.103 177.092 180.964 176.215C180.949 176.048 180.897 175.886 180.811 175.742C180.756 175.717 180.697 175.704 180.637 175.704C180.577 175.704 180.518 175.717 180.464 175.742C180.212 175.93 179.999 176.167 179.838 176.437C179.133 177.483 178.497 178.574 177.935 179.703C177.195 181.211 176.306 182.64 175.282 183.97C174.883 184.366 174.461 184.738 174.018 185.082C173.406 185.638 172.476 186.431 172.017 186.889Z" fill="#231F20"/>
<path d="M135.994 166.166C135.994 166.166 153.554 191.031 155.888 191.045C158.222 191.059 173.67 182.483 173.67 182.483L176.448 192.602C176.448 192.602 161.25 207.752 153.568 205.598C145.885 203.443 121.463 188.307 121.463 188.307L135.994 166.166Z" fill="#2945FF"/>
<path d="M122.825 158.34C121.644 158.493 120.449 158.493 119.06 158.604C117.671 158.715 116.073 158.521 115.823 157.214C115.573 155.908 116.754 155.018 116.282 154.018C116.135 153.75 115.936 153.514 115.698 153.323C113.478 151.188 112.144 148.295 111.961 145.219C111.826 142.177 112.849 139.197 114.823 136.88C114.489 137.06 114.059 136.769 113.948 136.407C113.882 136.026 113.961 135.634 114.17 135.309C114.924 134.102 116.009 133.137 117.296 132.529C121.336 130.475 125.904 129.695 130.396 130.292C133.841 130.695 138.231 132.64 138.509 136.699C138.588 137.424 138.414 138.153 138.017 138.764C137.619 139.374 137.022 139.828 136.328 140.049C136.328 144.441 134.661 147.735 132.424 151.293C130.932 153.73 128.855 155.756 126.381 157.187C125.284 157.803 124.075 158.195 122.825 158.34Z" fill="white"/>
<path d="M118.449 159.341C116.615 159.341 115.392 158.632 115.142 157.395C115.061 156.771 115.152 156.136 115.406 155.56C115.615 155.018 115.726 154.657 115.615 154.407C115.51 154.238 115.379 154.088 115.226 153.962C112.851 151.706 111.425 148.629 111.239 145.358C111.089 142.468 111.932 139.613 113.628 137.269C113.448 137.091 113.314 136.872 113.239 136.63C113.121 136.076 113.22 135.499 113.517 135.017C114.341 133.699 115.528 132.647 116.935 131.987C121.101 129.876 125.806 129.067 130.438 129.666C134.605 130.153 138.884 132.529 139.162 136.727C139.232 137.522 139.062 138.319 138.673 139.016C138.284 139.712 137.694 140.276 136.981 140.633C136.87 145.15 134.939 148.597 132.966 151.752C131.415 154.286 129.257 156.392 126.687 157.882C125.506 158.538 124.208 158.959 122.867 159.119C122.158 159.202 121.477 159.244 120.699 159.271C120.185 159.271 119.644 159.271 119.074 159.383L118.449 159.341ZM114.823 136.171C114.927 136.17 115.031 136.194 115.125 136.24C115.219 136.285 115.301 136.352 115.365 136.435C115.471 136.559 115.53 136.716 115.53 136.88C115.53 137.043 115.471 137.201 115.365 137.325C113.483 139.523 112.519 142.361 112.671 145.251C112.824 148.142 114.082 150.862 116.184 152.85C116.484 153.103 116.734 153.409 116.921 153.753C117.052 154.117 117.106 154.503 117.08 154.888C117.054 155.274 116.947 155.649 116.768 155.991C116.598 156.347 116.513 156.737 116.518 157.131C116.671 157.854 117.907 158.021 119.018 157.923L120.685 157.826C121.408 157.826 122.075 157.826 122.741 157.659C123.91 157.534 125.04 157.17 126.062 156.589C128.432 155.225 130.42 153.284 131.841 150.946C134.272 147.068 135.675 143.996 135.647 140.077C135.644 139.918 135.696 139.763 135.795 139.638C135.894 139.514 136.034 139.428 136.189 139.396C136.722 139.207 137.174 138.843 137.472 138.363C137.77 137.883 137.896 137.316 137.828 136.755C137.565 132.877 132.994 131.306 130.327 131C125.978 130.419 121.556 131.17 117.643 133.155C116.496 133.691 115.53 134.551 114.865 135.629C114.684 135.962 114.684 136.129 114.712 136.199L114.823 136.171Z" fill="#231F20"/>
<path d="M138.564 146.067C138.564 146.067 142.482 150.557 141.954 151.627C141.426 152.697 139.106 152.35 139.106 152.35" fill="white"/>
<path d="M139.982 153.156C139.652 153.155 139.322 153.132 138.995 153.086C138.814 153.052 138.653 152.949 138.547 152.799C138.441 152.648 138.397 152.462 138.426 152.28C138.456 152.1 138.557 151.939 138.705 151.833C138.853 151.726 139.037 151.682 139.217 151.71C139.954 151.821 141.135 151.78 141.329 151.377C140.527 149.578 139.412 147.936 138.037 146.526C137.915 146.386 137.854 146.203 137.867 146.018C137.88 145.833 137.966 145.661 138.106 145.539C138.246 145.417 138.429 145.356 138.614 145.369C138.799 145.382 138.971 145.468 139.092 145.609C141.01 147.819 143.177 150.71 142.579 151.974C142.294 152.388 141.901 152.716 141.444 152.924C140.986 153.132 140.481 153.212 139.982 153.156Z" fill="#231F20"/>
<path d="M136.967 139.66C139.259 141.05 139.162 144.733 139.467 147.054C139.903 150.316 140.255 153.591 140.523 156.881C140.704 158.966 135.383 159.661 134.369 159.23L136.328 167.291L124.547 164.442L124.061 157.631C125.288 157.359 126.416 156.753 127.321 155.88C128.225 155.007 128.871 153.9 129.187 152.683C130.687 148.194 129.187 139.062 129.187 139.062C129.187 139.062 134.744 138.284 136.967 139.66Z" fill="white"/>
<path d="M136.328 167.986H136.245L124.45 165.137C124.307 165.102 124.179 165.023 124.084 164.91C123.989 164.798 123.933 164.658 123.922 164.512L123.45 157.687C123.438 157.511 123.492 157.338 123.603 157.201C123.714 157.064 123.873 156.975 124.047 156.95C125.145 156.697 126.152 156.145 126.956 155.355C127.76 154.565 128.33 153.569 128.604 152.475C129.993 148.194 128.507 139.284 128.493 139.187C128.464 139.001 128.509 138.812 128.618 138.659C128.734 138.51 128.903 138.411 129.09 138.381C129.687 138.298 135.022 137.616 137.425 139.09C139.829 140.563 139.898 143.385 140.107 145.734C140.107 146.178 140.19 146.595 140.246 146.985C140.662 150.237 141.024 153.559 141.301 156.839C141.322 157.24 141.229 157.638 141.036 157.989C140.842 158.341 140.554 158.631 140.204 158.827C138.73 159.661 137.063 160.093 135.369 160.078L137.092 167.138C137.117 167.241 137.119 167.349 137.097 167.452C137.074 167.556 137.028 167.653 136.963 167.736C136.897 167.819 136.813 167.886 136.718 167.932C136.622 167.978 136.517 168.001 136.411 168L136.328 167.986ZM125.214 163.886L135.397 166.346L133.702 159.397C133.673 159.27 133.679 159.138 133.721 159.015C133.763 158.893 133.838 158.784 133.938 158.702C134.04 158.618 134.164 158.566 134.294 158.551C134.425 158.536 134.557 158.56 134.675 158.618C136.296 158.801 137.933 158.471 139.356 157.673C139.704 157.437 139.87 157.187 139.857 156.964C139.579 153.698 139.218 150.404 138.787 147.165C138.787 146.762 138.704 146.317 138.662 145.859C138.467 143.816 138.231 141.272 136.62 140.299C135.23 139.409 131.771 139.521 129.924 139.715C130.271 141.995 131.16 149.042 129.854 152.947C129.514 154.174 128.876 155.297 127.996 156.217C127.116 157.136 126.022 157.823 124.811 158.215L125.214 163.886Z" fill="#231F20"/>
<path d="M140.106 154.462C139.82 154.718 139.483 154.907 139.116 155.019C138.75 155.13 138.363 155.161 137.984 155.108C137.605 155.055 137.241 154.92 136.919 154.713C136.597 154.505 136.324 154.23 136.119 153.906" fill="white"/>
<path d="M138.217 155.852C138.084 155.866 137.949 155.866 137.815 155.852C137.351 155.777 136.908 155.603 136.518 155.341C136.127 155.08 135.797 154.737 135.55 154.337C135.497 154.263 135.459 154.178 135.438 154.089C135.418 153.999 135.415 153.906 135.431 153.816C135.446 153.726 135.48 153.639 135.529 153.562C135.578 153.484 135.642 153.417 135.717 153.364C135.871 153.262 136.058 153.223 136.24 153.257C136.422 153.291 136.583 153.394 136.689 153.545C136.83 153.783 137.019 153.988 137.244 154.148C137.469 154.309 137.725 154.42 137.995 154.476C138.602 154.515 139.201 154.327 139.676 153.948C139.82 153.834 140.003 153.782 140.185 153.803C140.367 153.824 140.534 153.916 140.649 154.059C140.764 154.202 140.818 154.384 140.8 154.566C140.782 154.748 140.692 154.916 140.551 155.032C139.874 155.536 139.06 155.822 138.217 155.852Z" fill="#231F20"/>
<path d="M132.633 148.986C132.429 148.181 132.011 147.447 131.424 146.859C131.033 146.329 130.565 145.861 130.035 145.47C129.774 145.286 129.475 145.163 129.16 145.11C128.845 145.057 128.522 145.076 128.215 145.164C127.952 145.268 127.715 145.428 127.518 145.631C127.322 145.835 127.171 146.078 127.076 146.345C126.898 146.882 126.837 147.451 126.896 148.013C127.013 149.251 127.452 150.437 128.168 151.454C128.885 152.47 129.854 153.282 130.98 153.809L130.771 153.642" fill="white"/>
<path d="M130.979 154.574C130.883 154.593 130.784 154.593 130.687 154.574C129.449 153.998 128.384 153.107 127.598 151.99C126.813 150.873 126.336 149.568 126.214 148.208C126.128 147.541 126.204 146.864 126.436 146.234C126.563 145.874 126.767 145.546 127.033 145.272C127.3 144.999 127.622 144.786 127.978 144.649C128.385 144.521 128.816 144.488 129.238 144.553C129.659 144.618 130.06 144.78 130.409 145.025C130.99 145.408 131.51 145.877 131.951 146.415C132.632 147.091 133.113 147.942 133.341 148.875C133.354 148.965 133.35 149.057 133.328 149.146C133.307 149.235 133.267 149.319 133.213 149.392C133.159 149.466 133.091 149.528 133.013 149.575C132.934 149.622 132.848 149.654 132.757 149.667C132.668 149.683 132.576 149.681 132.487 149.66C132.399 149.64 132.315 149.602 132.241 149.549C132.167 149.496 132.105 149.429 132.057 149.351C132.01 149.274 131.979 149.187 131.965 149.097C131.776 148.419 131.406 147.804 130.896 147.318C130.552 146.859 130.14 146.456 129.673 146.123C129.499 145.996 129.3 145.908 129.088 145.868C128.877 145.827 128.659 145.833 128.451 145.886C128.122 146.043 127.867 146.323 127.742 146.665C127.592 147.112 127.545 147.587 127.603 148.055C127.706 149.083 128.052 150.072 128.612 150.939C129.172 151.807 129.931 152.529 130.826 153.045C130.974 153.05 131.115 153.103 131.229 153.198L131.437 153.364C131.563 153.474 131.646 153.625 131.672 153.791C131.697 153.956 131.663 154.125 131.576 154.268C131.512 154.366 131.423 154.446 131.318 154.499C131.213 154.553 131.096 154.579 130.979 154.574Z" fill="#231F20"/>
<path d="M137.489 144.802C137.737 144.754 137.837 144.195 137.712 143.555C137.587 142.915 137.284 142.435 137.036 142.483C136.787 142.532 136.687 143.091 136.812 143.731C136.938 144.371 137.24 144.851 137.489 144.802Z" fill="#231F20"/>
<path d="M122.574 166.763L123.019 163.024L137.439 161.982L139.745 167.125C134.122 168.788 128.122 168.661 122.574 166.763Z" fill="#231F20"/>
<path d="M131.882 168.973C128.642 168.973 125.424 168.447 122.352 167.417C122.199 167.369 122.068 167.269 121.982 167.134C121.895 166.999 121.859 166.839 121.88 166.68L122.338 162.941C122.357 162.781 122.431 162.632 122.548 162.52C122.664 162.409 122.816 162.341 122.977 162.329L137.397 161.287C137.538 161.277 137.679 161.31 137.801 161.382C137.922 161.454 138.019 161.562 138.078 161.69L140.37 166.833C140.408 166.921 140.427 167.015 140.427 167.111C140.427 167.206 140.408 167.301 140.37 167.389C140.292 167.566 140.148 167.706 139.967 167.778C137.353 168.606 134.624 169.009 131.882 168.973ZM123.324 166.277C128.341 167.843 133.695 167.982 138.786 166.68L137.008 162.705L123.644 163.678L123.324 166.277Z" fill="#231F20"/>
<path d="M139.745 167.125C131.188 164.845 122.769 160.175 111.961 173.463C101.153 186.75 107.932 239.54 107.932 239.54C110.546 241.648 113.627 243.099 116.916 243.771C120.206 244.443 123.609 244.317 126.839 243.404L154.429 236.454C154.429 236.454 147.72 169.251 139.745 167.125Z" fill="#2945FF"/>
<path d="M142.398 340.115V349.33C142.398 349.33 166.404 346.717 166.015 344.896C165.626 343.075 153.512 339.698 153.512 339.698L142.398 340.115Z" fill="#2945FF"/>
<path d="M142.399 350.025C142.225 350.022 142.058 349.958 141.927 349.844C141.857 349.778 141.802 349.698 141.764 349.609C141.725 349.521 141.705 349.426 141.704 349.33V340.115C141.704 339.935 141.773 339.762 141.898 339.633C142.022 339.503 142.192 339.427 142.371 339.42L153.485 339.003H153.693C158.403 340.323 166.349 342.811 166.71 344.743C166.73 344.875 166.723 345.009 166.69 345.138C166.656 345.267 166.597 345.388 166.516 345.494C165.127 347.384 147.72 349.413 142.413 349.983L142.399 350.025ZM143.093 340.796V348.552C152.929 347.453 163.348 345.772 165.238 344.84C164.168 343.826 158.528 341.81 153.485 340.407L143.093 340.796Z" fill="#231F20"/>
<path d="M129.317 274.116L163.912 268.069L159.405 242.26L124.81 248.307L129.317 274.116Z" fill="white"/>
<path d="M129.299 274.802C129.135 274.802 128.976 274.745 128.85 274.641C128.723 274.537 128.636 274.393 128.604 274.232L124.103 248.421C124.074 248.242 124.114 248.058 124.214 247.907C124.323 247.754 124.488 247.649 124.673 247.615L159.264 241.569C159.355 241.553 159.447 241.555 159.537 241.575C159.626 241.595 159.711 241.633 159.786 241.686C159.861 241.739 159.924 241.806 159.973 241.884C160.022 241.962 160.055 242.048 160.07 242.139L164.571 267.95C164.591 268.038 164.591 268.13 164.572 268.219C164.553 268.308 164.515 268.392 164.46 268.464C164.41 268.539 164.344 268.603 164.267 268.651C164.191 268.699 164.105 268.73 164.015 268.742L129.41 274.788L129.299 274.802ZM125.589 248.866L129.854 273.301L163.085 267.505L158.861 243.126L125.589 248.866Z" fill="#231F20"/>
<path d="M144.496 233.688C144.496 233.688 144.732 237.858 145.885 238.803C147.038 239.748 151.109 242.278 150.817 243.098C150.525 243.918 147.664 244.488 147.664 244.488C147.664 244.488 150.192 249.492 148.15 250.993C146.108 252.494 140.662 254.023 139.62 252.508C138.578 250.993 136.244 235.203 136.244 235.203" fill="white"/>
<path d="M141.454 253.828C141.177 253.85 140.898 253.85 140.621 253.828C140.299 253.796 139.988 253.691 139.712 253.523C139.435 253.355 139.2 253.126 139.023 252.855C137.939 251.298 135.925 237.927 135.536 235.259C135.508 235.074 135.555 234.887 135.666 234.737C135.777 234.587 135.942 234.487 136.126 234.46C136.311 234.432 136.498 234.479 136.648 234.589C136.798 234.7 136.898 234.866 136.925 235.05C138.051 242.737 139.579 251.201 140.176 252.063C140.351 252.236 140.583 252.34 140.829 252.355C143.289 252.414 145.709 251.731 147.775 250.395C148.942 249.519 147.775 246.225 147.081 244.835C147.036 244.737 147.012 244.631 147.012 244.523C147.012 244.415 147.036 244.308 147.081 244.21C147.127 244.114 147.196 244.031 147.28 243.966C147.364 243.9 147.462 243.856 147.567 243.835C148.453 243.679 149.311 243.389 150.109 242.973C149.084 241.99 147.973 241.102 146.789 240.318C146.261 239.929 145.789 239.609 145.497 239.373C144.108 238.303 143.885 234.508 143.844 233.813C143.836 233.63 143.9 233.45 144.021 233.313C144.143 233.176 144.314 233.091 144.497 233.077C144.588 233.069 144.681 233.08 144.768 233.109C144.855 233.138 144.935 233.185 145.004 233.246C145.073 233.307 145.129 233.381 145.168 233.464C145.207 233.548 145.229 233.638 145.233 233.73C145.33 235.592 145.802 237.9 146.372 238.344C146.636 238.567 147.081 238.873 147.595 239.234C150.595 241.374 151.873 242.403 151.512 243.404C151.234 244.21 149.859 244.794 148.734 245.044C149.428 246.67 150.609 250.173 148.65 251.632C146.487 252.986 144.005 253.744 141.454 253.828Z" fill="#231F20"/>
<path d="M133.675 175.019L146.456 235.314L135.55 239.484C135.55 239.484 118.685 185.611 117.129 181.538" fill="#2945FF"/>
<path d="M135.549 240.235C135.453 240.254 135.354 240.254 135.258 240.235C135.171 240.195 135.094 240.137 135.032 240.065C134.97 239.993 134.923 239.909 134.896 239.818C134.73 239.276 118.017 185.916 116.489 181.899C116.445 181.812 116.419 181.717 116.414 181.619C116.409 181.521 116.425 181.424 116.46 181.332C116.495 181.241 116.549 181.158 116.619 181.09C116.688 181.021 116.772 180.967 116.863 180.933C116.955 180.898 117.052 180.884 117.15 180.89C117.248 180.896 117.343 180.922 117.429 180.967C117.516 181.013 117.592 181.076 117.653 181.153C117.713 181.229 117.757 181.318 117.781 181.413C119.24 185.263 133.924 232.062 135.994 238.692L145.718 234.981L133.049 175.214C133.028 175.124 133.026 175.032 133.041 174.941C133.057 174.851 133.09 174.764 133.139 174.687C133.188 174.609 133.252 174.542 133.327 174.49C133.402 174.437 133.487 174.4 133.577 174.38C133.758 174.35 133.944 174.389 134.099 174.489C134.253 174.589 134.364 174.744 134.41 174.922L147.191 235.203C147.225 235.365 147.201 235.533 147.122 235.679C147.043 235.824 146.915 235.936 146.76 235.995L135.855 240.165C135.764 240.222 135.656 240.247 135.549 240.235Z" fill="#231F20"/>
<path d="M143.552 175.617C143.552 175.617 150.567 197.856 151.734 213.743L143.552 175.617Z" fill="#68E1FD"/>
<path d="M151.734 214.438C151.559 214.438 151.391 214.373 151.262 214.254C151.133 214.136 151.054 213.973 151.04 213.798C149.887 198.12 142.954 176.048 142.885 175.826C142.847 175.656 142.874 175.478 142.961 175.327C143.048 175.177 143.188 175.064 143.354 175.012C143.52 174.959 143.699 174.971 143.856 175.045C144.014 175.118 144.138 175.248 144.205 175.409C144.274 175.631 151.262 197.87 152.429 213.687C152.437 213.778 152.426 213.87 152.398 213.958C152.37 214.045 152.325 214.126 152.266 214.195C152.206 214.265 152.134 214.322 152.052 214.364C151.97 214.406 151.881 214.431 151.79 214.438H151.734Z" fill="#231F20"/>
<path d="M390.14 304.282C390.14 304.282 395.113 279.681 382.596 262.724C382.596 262.724 375.817 265.323 377.651 280.723C378.905 290.361 382.014 299.664 386.806 308.119L390.14 304.282Z" fill="white"/>
<path d="M386.805 308.772C386.692 308.76 386.584 308.722 386.487 308.662C386.391 308.602 386.31 308.521 386.249 308.424C381.418 299.874 378.273 290.474 376.983 280.737C375.122 264.961 382.096 262.098 382.401 261.987C382.547 261.933 382.707 261.927 382.856 261.969C383.006 262.012 383.139 262.101 383.235 262.223C395.738 279.25 390.945 304.102 390.903 304.352C390.876 304.475 390.819 304.59 390.737 304.685L387.403 308.522C387.329 308.606 387.236 308.673 387.133 308.716C387.029 308.759 386.917 308.778 386.805 308.772ZM382.387 263.599C380.998 264.544 376.914 268.422 378.359 280.57C379.586 289.773 382.491 298.673 386.93 306.826L389.472 303.893C389.875 301.641 393.557 279.264 382.387 263.599Z" fill="#231F20"/>
<path d="M385.124 300.752C385.124 300.752 379.317 260.778 358.396 246.545C359.099 256.38 361.204 266.064 364.647 275.302C370.134 289.132 380.165 301.989 380.165 301.989L385.124 300.752Z" fill="white"/>
<path d="M380.165 302.656C380.055 302.657 379.946 302.633 379.847 302.584C379.748 302.536 379.662 302.466 379.595 302.378C379.498 302.253 369.44 289.285 363.98 275.511C360.531 266.194 358.408 256.439 357.673 246.531C357.669 246.396 357.701 246.262 357.767 246.145C357.834 246.027 357.931 245.93 358.048 245.864C358.16 245.792 358.29 245.754 358.423 245.754C358.556 245.754 358.687 245.792 358.799 245.864C369.773 253.356 376.539 267.866 380.276 278.722C382.735 285.856 384.594 293.183 385.833 300.627C385.855 300.802 385.812 300.98 385.712 301.126C385.613 301.272 385.463 301.376 385.291 301.419L380.332 302.614L380.165 302.656ZM359.229 247.963C360.032 257.202 362.079 266.291 365.314 274.983C369.28 284.281 374.365 293.061 380.457 301.127L384.305 300.21C383.527 295.123 377.247 261.556 359.229 247.963Z" fill="#231F20"/>
<path d="M394.182 304.282C394.182 304.282 408.852 265.934 402.99 238.956C402.99 238.956 395.293 246.003 390.139 261.653C384.985 277.304 387.361 304.31 387.361 304.31L394.182 304.282Z" fill="white"/>
<path d="M394.182 304.922H387.347C387.166 304.926 386.99 304.86 386.855 304.739C386.721 304.617 386.638 304.449 386.624 304.269C386.624 304.004 384.332 276.943 389.403 261.334C394.473 245.725 402.128 238.622 402.447 238.33C402.538 238.243 402.651 238.183 402.773 238.156C402.896 238.129 403.023 238.137 403.142 238.178C403.264 238.213 403.373 238.281 403.459 238.374C403.544 238.467 403.603 238.582 403.628 238.706C409.477 265.601 394.946 304.032 394.793 304.463C394.747 304.591 394.665 304.703 394.556 304.784C394.447 304.866 394.317 304.913 394.182 304.922ZM388 303.532H393.681C395.279 299.181 407.268 265.184 402.559 240.374C400.378 242.764 394.807 249.714 390.82 261.82C386.221 275.775 387.694 299.279 388 303.49V303.532Z" fill="#231F20"/>
<path d="M402.601 299.904C403.184 299.904 418.244 276.275 418.632 255.691C411.844 260.451 406.337 266.815 402.601 274.218C396.724 286.213 395.752 301.933 395.752 301.933L402.601 299.904Z" fill="white"/>
<path d="M395.752 302.656C395.653 302.656 395.556 302.636 395.465 302.597C395.375 302.559 395.293 302.502 395.226 302.43C395.158 302.358 395.106 302.274 395.072 302.181C395.038 302.089 395.024 301.99 395.03 301.892C395.03 301.739 396.085 285.88 401.976 273.899C405.757 266.37 411.352 259.902 418.257 255.079C418.368 255.012 418.496 254.976 418.626 254.976C418.755 254.976 418.883 255.012 418.994 255.079C419.108 255.142 419.203 255.234 419.269 255.347C419.335 255.46 419.37 255.588 419.369 255.718C418.994 274.885 405.31 299.181 402.809 300.571L395.96 302.601L395.752 302.656ZM417.868 257.108C411.73 261.723 406.727 267.68 403.24 274.524C398.35 284.518 396.877 297.277 396.544 300.933L402.254 299.237C403.587 297.666 416.868 276.303 417.868 257.108Z" fill="#231F20"/>
<path d="M400.128 324.742H380.165L372.427 296.054H407.852L400.128 324.742Z" fill="#2945FF"/>
<path d="M400.198 325.437H380.165C380.012 325.439 379.864 325.389 379.743 325.295C379.622 325.202 379.536 325.071 379.498 324.923L371.76 296.235C371.732 296.132 371.729 296.025 371.75 295.921C371.772 295.817 371.818 295.72 371.885 295.637C371.949 295.553 372.03 295.484 372.124 295.436C372.218 295.387 372.322 295.361 372.427 295.359H407.852C407.959 295.36 408.064 295.385 408.159 295.433C408.255 295.48 408.338 295.549 408.404 295.633C408.469 295.717 408.515 295.815 408.537 295.919C408.56 296.023 408.558 296.131 408.533 296.235L400.795 324.923C400.759 325.059 400.683 325.181 400.576 325.273C400.47 325.365 400.338 325.422 400.198 325.437ZM380.749 324.047H399.656L407.019 296.749H373.33L380.749 324.047Z" fill="#231F20"/>
</svg>
