<svg viewBox="0 0 579 450" fill="none" xmlns="http://www.w3.org/2000/svg"><path d="M558.931.91H75.851c-10.553 0-19.108 8.101-19.108 18.094v296.11c0 9.993 8.555 18.094 19.108 18.094h483.08c10.553 0 19.108-8.101 19.108-18.094V19.004c0-9.993-8.555-18.094-19.108-18.094" fill="#fff"/><path d="M558.931 334.136h-483.1c-5.319-.009-10.417-2.014-14.179-5.576-3.761-3.562-5.879-8.391-5.889-13.428V18.915c.035-5.022 2.163-9.827 5.922-13.37S70.53.009 75.832 0H558.93c5.321.005 10.423 2.008 14.185 5.571s5.879 8.395 5.884 13.433v296.217c-.03 5.023-2.157 9.832-5.917 13.375-3.76 3.544-8.847 5.536-14.152 5.54M75.831 1.838c-4.804.01-9.409 1.821-12.806 5.038-3.398 3.218-5.31 7.578-5.32 12.128v296.217c.01 4.55 1.922 8.911 5.32 12.128 3.397 3.217 8.002 5.029 12.807 5.039H558.93c4.806-.005 9.414-1.815 12.813-5.034 3.398-3.218 5.31-7.581 5.315-12.133V19.004c-.005-4.551-1.917-8.915-5.315-12.133s-8.007-5.028-12.813-5.033z" fill="#231F20"/><path d="M345.015 333.208h-68.44v66.328h68.44z" fill="#2945FF"/><path d="M344.978 400.428h-68.403a.97.97 0 0 1-.666-.261.87.87 0 0 1-.276-.631v-66.328q0-.176.072-.338a.85.85 0 0 1 .205-.286.93.93 0 0 1 .665-.25h68.403a.95.95 0 0 1 .653.256c.173.164.27.387.27.618v66.364a.87.87 0 0 1-.282.602.97.97 0 0 1-.641.254m-67.499-1.784h66.557v-64.543h-66.519z" fill="#231F20"/><path d="M380.536 399.536H241.054c-3.799 0-6.878 2.916-6.878 6.513v.018c0 3.597 3.079 6.513 6.878 6.513h139.482c3.798 0 6.878-2.916 6.878-6.513v-.018c0-3.597-3.08-6.513-6.878-6.513" fill="#2945FF"/><path d="M380.518 413.455H241.074c-2.074 0-4.063-.781-5.53-2.169-1.466-1.389-2.29-3.273-2.29-5.237s.824-3.847 2.29-5.236 3.456-2.169 5.53-2.169h139.444c2.074 0 4.063.78 5.53 2.169 1.466 1.389 2.29 3.272 2.29 5.236s-.824 3.848-2.29 5.237c-1.467 1.388-3.456 2.169-5.53 2.169m-139.444-13.027a6.1 6.1 0 0 0-3.993 1.757 5.48 5.48 0 0 0-1.627 3.873c0 1.441.582 2.827 1.627 3.874s2.474 1.675 3.993 1.756h139.444a6.3 6.3 0 0 0 2.38-.334 6 6 0 0 0 2.045-1.198 5.65 5.65 0 0 0 1.379-1.867c.32-.705.486-1.464.486-2.231s-.166-1.526-.486-2.231a5.7 5.7 0 0 0-1.379-1.867 6 6 0 0 0-2.045-1.198 6.3 6.3 0 0 0-2.38-.334z" fill="#231F20"/><path d="M578.039 16.899H56.743v269.218H578.04z" fill="#fff"/><path d="M578.039 287.027H56.668a1 1 0 0 1-.374-.064 1 1 0 0 1-.318-.196.9.9 0 0 1-.213-.298.9.9 0 0 1-.075-.352V16.899a.9.9 0 0 1 .058-.372.9.9 0 0 1 .208-.32 1 1 0 0 1 .325-.214q.186-.076.389-.076h521.371q.194 0 .372.071a1 1 0 0 1 .314.202.9.9 0 0 1 .275.655v269.272q0 .181-.073.348a.9.9 0 0 1-.209.296.98.98 0 0 1-.679.266m-520.335-1.784H577.06V17.809H57.704z" fill="#231F20"/><path d="M335.556 234.957H92.716a.97.97 0 0 1-.667-.261.87.87 0 0 1-.276-.631V53.39c0-.236.1-.463.276-.63a.97.97 0 0 1 .666-.262h242.841a.97.97 0 0 1 .666.261.87.87 0 0 1 .276.631v180.675a.87.87 0 0 1-.276.631.97.97 0 0 1-.666.261m-241.917-1.784h240.993V54.265H93.658z" fill="#D1D3D4"/><path d="M275.896 93.04H152.601a.97.97 0 0 1-.666-.26.87.87 0 0 1-.276-.631c0-.237.099-.464.276-.631a.97.97 0 0 1 .666-.262h123.295c.25 0 .49.094.667.262a.87.87 0 0 1 .276.63c0 .237-.1.464-.276.632a.97.97 0 0 1-.667.26m-142.194 0h-10.081a.97.97 0 0 1-.667-.26.87.87 0 0 1-.276-.631c0-.237.1-.464.276-.631a.97.97 0 0 1 .667-.262h10.081c.25 0 .49.094.666.262a.87.87 0 0 1 .276.63.87.87 0 0 1-.276.632.97.97 0 0 1-.666.26m175.229 25.893h-82.348a.97.97 0 0 1-.666-.262.87.87 0 0 1-.276-.63c0-.237.099-.464.276-.631a.97.97 0 0 1 .666-.262h82.348c.25 0 .489.094.666.262a.87.87 0 0 1 .276.631.87.87 0 0 1-.276.63.97.97 0 0 1-.666.262m-106.149 0h-50.181a.97.97 0 0 1-.666-.262.87.87 0 0 1-.276-.63c0-.237.099-.464.276-.631a.97.97 0 0 1 .666-.262h50.181c.25 0 .49.094.667.262a.87.87 0 0 1 .276.631.87.87 0 0 1-.276.63.97.97 0 0 1-.667.262m-69.08 0h-10.081a.97.97 0 0 1-.667-.262.87.87 0 0 1-.276-.63c0-.237.1-.464.276-.631a.97.97 0 0 1 .667-.262h10.081c.25 0 .49.094.666.262a.87.87 0 0 1 .276.631.87.87 0 0 1-.276.63.97.97 0 0 1-.666.262m136.353 25.892H152.601a.97.97 0 0 1-.666-.261.87.87 0 0 1-.276-.631c0-.237.099-.464.276-.631a.97.97 0 0 1 .666-.261h117.454c.248.004.485.1.661.266a.9.9 0 0 1 .281.626.87.87 0 0 1-.276.631.97.97 0 0 1-.666.261m-136.353 0h-10.081a.97.97 0 0 1-.667-.261.87.87 0 0 1-.276-.631.9.9 0 0 1 .282-.626.98.98 0 0 1 .661-.266h10.081c.25 0 .49.094.666.261a.87.87 0 0 1 .276.631.87.87 0 0 1-.276.631.97.97 0 0 1-.666.261m127.346 25.892h-56.532a.97.97 0 0 1-.666-.261.87.87 0 0 1-.276-.631c0-.237.099-.463.276-.631a.97.97 0 0 1 .666-.261h56.532c.248.004.485.1.66.266a.9.9 0 0 1 .282.626.87.87 0 0 1-.276.631.97.97 0 0 1-.666.261" fill="#D1D3D4"/><path d="M226.582 170.717h-73.981a.97.97 0 0 1-.666-.261.87.87 0 0 1-.276-.631c0-.237.099-.463.276-.631a.97.97 0 0 1 .666-.261h73.981c.25 0 .49.094.666.261a.87.87 0 0 1 .276.631.87.87 0 0 1-.276.631.97.97 0 0 1-.666.261m-92.88 0h-10.081a.97.97 0 0 1-.667-.261.87.87 0 0 1-.276-.631.9.9 0 0 1 .282-.626.98.98 0 0 1 .661-.266h10.081c.25 0 .49.094.666.261a.87.87 0 0 1 .276.631.87.87 0 0 1-.276.631.97.97 0 0 1-.666.261m99.08 25.179h-80.181a.97.97 0 0 1-.666-.262.87.87 0 0 1-.276-.63c0-.237.099-.464.276-.631a.97.97 0 0 1 .666-.262h80.181c.25 0 .489.094.666.262a.87.87 0 0 1 .276.631.87.87 0 0 1-.276.63.97.97 0 0 1-.666.262m-99.08 0h-10.081a.97.97 0 0 1-.667-.262.87.87 0 0 1-.276-.63c0-.237.1-.464.276-.631a.97.97 0 0 1 .667-.262h10.081c.25 0 .49.094.666.262a.87.87 0 0 1 .276.631.87.87 0 0 1-.276.63.97.97 0 0 1-.666.262" fill="#D1D3D4"/><path d="m524.994 173.108 6.859-18.54s-4.24-9.475-3.429-14.775c.81-5.3 3.429-14.865 5.653-13.937s.98 5.247 2.6 12.349c0 0 13.059-22.556 16.639-21.931 3.581.624 2.94 3.23 1.885 4.854 0 0 3.919-3.159 5.219-1 .37.669.563 1.413.563 2.168s-.193 1.499-.563 2.168c0 0 2.77-2.944 3.769-.927.22.757.262 1.55.122 2.324a5.2 5.2 0 0 1-.932 2.154s3.26-2.944 3.58-.321-24.949 54.051-24.949 54.051" fill="#fff"/><path d="M542.122 182.673a1.2 1.2 0 0 1-.414 0 .95.95 0 0 1-.504-.524.88.88 0 0 1 .033-.707c9.931-20.182 24.742-51.107 24.855-53.534a.55.55 0 0 0 0-.267 6.4 6.4 0 0 0-1.885 1.195c-.179.151-.41.234-.65.234a1 1 0 0 1-.65-.234.9.9 0 0 1-.332-.575.87.87 0 0 1 .163-.638c.391-.507.66-1.09.787-1.707a4.1 4.1 0 0 0-.052-1.862.4.4 0 0 0-.113-.178c-.802.24-1.51.699-2.036 1.32a1 1 0 0 1-1.281.143.93.93 0 0 1-.388-.555.9.9 0 0 1 .105-.659c.289-.526.44-1.11.44-1.704a3.54 3.54 0 0 0-.44-1.704.5.5 0 0 0-.161-.188.6.6 0 0 0-.234-.097 6.4 6.4 0 0 0-3.355 1.516.97.97 0 0 1-.621.222.97.97 0 0 1-.622-.222.92.92 0 0 1-.333-.541.88.88 0 0 1 .107-.618c.275-.362.463-.776.551-1.214a2.9 2.9 0 0 0-.043-1.32c-.226-.482-.829-.803-1.79-.964-1.997 0-9.667 11.188-15.602 21.413a.92.92 0 0 1-.42.387 1 1 0 0 1-.579.077 1 1 0 0 1-.522-.238.9.9 0 0 1-.288-.476 45 45 0 0 1-.999-7.548c-.17-2.444-.302-3.854-1.037-4.157-1.036.356-3.354 6.656-4.371 13.24-.773 4.979 3.316 14.276 3.354 14.276a.9.9 0 0 1 0 .66l-6.916 18.487a.94.94 0 0 1-.499.524 1 1 0 0 1-.745.029 1 1 0 0 1-.326-.178.9.9 0 0 1-.317-.63.9.9 0 0 1 .059-.352l6.728-18.201c-.773-1.785-4.127-9.958-3.355-14.936.509-3.301 2.601-13.062 5.427-14.561a1.85 1.85 0 0 1 1.621-.107c1.884.767 2.016 2.855 2.223 5.728.095 1.356.189 2.962.472 4.782 4.541-7.673 12.832-20.699 16.337-20.146.668.06 1.311.273 1.873.621a4 4 0 0 1 1.349 1.377c.247.502.351 1.055.302 1.606a4.77 4.77 0 0 1 2.582-.464c.366.06.714.197 1.017.401s.554.469.735.777c.453.763.693 1.623.697 2.498a2.9 2.9 0 0 1 1.489-.249c.353.059.684.202.964.414s.499.486.638.799c.37.834.468 1.754.282 2.641a2.2 2.2 0 0 1 1.282 0c.378.14.703.386.932.704.229.319.35.695.349 1.08.339 2.677-19.07 42.434-25.025 54.551a.94.94 0 0 1-.341.39 1 1 0 0 1-.507.163m-143.213 62.67s-16.959 28.336-18.598 40.774h115.248s-10.213-23.073-16.017-38.74z" fill="#231F20"/><path d="M495.56 286.991H380.311q-.198 0-.38-.074a1 1 0 0 1-.318-.211.9.9 0 0 1-.245-.696c1.621-12.491 18.034-39.954 18.731-41.042a.8.8 0 0 1 .342-.344.9.9 0 0 1 .487-.102l80.633 2.034c.192.008.377.069.532.177a.9.9 0 0 1 .335.43c5.653 15.453 15.904 38.437 15.998 38.669a.84.84 0 0 1-.094.838.9.9 0 0 1-.344.251.95.95 0 0 1-.428.07m-114.156-1.784h112.742c-2.148-4.925-10.27-23.572-15.282-36.974l-79.408-2.016c-2.148 3.64-15.942 27.338-18.052 39.008z" fill="#231F20"/><path d="M304.538 198.394a4.6 4.6 0 0 1-.829-.143c-4.503-1.071-10.232-7.334-13.68-10.207-8.587-6.943-16.058-15.034-22.18-24.018a8.5 8.5 0 0 1-1.771-4.033 7.13 7.13 0 0 1 1.074-3.569c2.714-4.907 7.877-10.707 13.888-8.102 2.224.964 16.281 11.956 16.281 13.866a42.6 42.6 0 0 1-.113-10.154 3.17 3.17 0 0 1 1.847-.233c.626.109 1.2.403 1.639.84a8.3 8.3 0 0 1 1.885 3.087c1.093 2.605 15.075 36.331 16.243 35.689-3.995 2.302-9.196 7.548-14.284 6.977" fill="#fff"/><path d="M305.406 199.358a8 8 0 0 1-.886 0 9 9 0 0 1-.942-.161c-3.674-.874-7.895-4.747-11.306-7.869-1.055-.964-2.016-1.785-2.827-2.534-8.664-6.995-16.199-15.153-22.367-24.215a9.4 9.4 0 0 1-1.885-4.497 7.7 7.7 0 0 1 1.187-4.05c1.564-2.856 7.293-11.903 15.075-8.53a100.5 100.5 0 0 1 14.586 11.51 44 44 0 0 1 .207-7.138.98.98 0 0 1 .471-.696 4.2 4.2 0 0 1 2.443-.348 4.07 4.07 0 0 1 2.193 1.079 9.1 9.1 0 0 1 2.11 3.427l.396.945c11.834 28.444 14.66 33.352 15.301 34.155.166.064.31.171.416.308a.9.9 0 0 1 .187.469.9.9 0 0 1-.098.492.96.96 0 0 1-.354.372c-1.018.607-2.111 1.41-3.279 2.249-3.241 2.373-6.859 5.032-10.628 5.032m-27.286-50.785c-5.031 0-8.838 6.12-10.006 8.244a6.3 6.3 0 0 0-.961 3.122 7.8 7.8 0 0 0 1.602 3.569c6.074 8.902 13.482 16.92 21.991 23.805a52 52 0 0 1 2.901 2.605c3.223 2.962 7.236 6.656 10.402 7.405q.343.092.697.125c3.374.375 6.992-2.266 10.195-4.604.867-.624 1.696-1.231 2.506-1.784-1.488-2.248-5.069-9.582-15.301-34.136l-.396-.946a7.45 7.45 0 0 0-1.639-2.766 2.35 2.35 0 0 0-.868-.514 2.4 2.4 0 0 0-1.016-.11 41.3 41.3 0 0 0 .15 9.404v.249a.9.9 0 0 1-.297.548.98.98 0 0 1-.598.243 1 1 0 0 1-.625-.173.9.9 0 0 1-.364-.511.3.3 0 0 1 0-.142c-.716-1.91-13.53-12.045-15.697-12.991a6.8 6.8 0 0 0-2.77-.642z" fill="#231F20"/><path d="M489.962 139.24s9.78 8.922 12.38 12.491 5.013 48.804 5.013 48.804l14.811-33.904 24.874 9.19s-15.188 73.429-31.168 74.946-46.978-27.052-46.978-27.052z" fill="#2945FF"/><path d="M417.357 131.906s-28.642 5.353-35.633 13.579 14.208 82.923 14.623 103.498c0 0 49.446 8.173 83.195-1.553 0 0 11.721-39.382 14.774-62.027 3.052-22.644-.867-42.416-4.353-46.11-3.486-3.693-16.847-6.156-16.847-6.156s-49.22-.036-55.759-1.231" fill="#2945FF"/><path d="M496.425 131.228c.624-2.637.959-5.328.999-8.03a12.3 12.3 0 0 0-.773-4.747c-2.11-4.961-9.139-7.138-10.289-12.491-.961-4.408.792-8.262-.433-12.491-1.225-4.23-2.412-5.978-1.884-10.867.771-8.644-.718-17.334-4.335-25.304-3.354-7.494-8.121-10.938-13.906-16.613a13.55 13.55 0 0 0-4.787-2.837c-15.301-5.692-32.034-1.178-39.76 13.133-4.296 7.96-6.162 17.006-11.137 24.608-3.505 5.353-8.555 10.046-9.893 16.22-1.168 5.354.961 10.618-.377 16.06a15.3 15.3 0 0 1-2.204 5.193 24.4 24.4 0 0 1-4.24 4.247 50.4 50.4 0 0 0-9.422 9.832 24 24 0 0 0-2.167 4.015z" fill="#fff"/><path d="M496.425 132.156H381.723a1 1 0 0 1-.461-.108.95.95 0 0 1-.35-.303.9.9 0 0 1-.106-.428c0-.149.037-.295.106-.428a25 25 0 0 1 2.262-4.158 52.4 52.4 0 0 1 9.61-10.047l.207-.16a22.8 22.8 0 0 0 3.882-3.89 14.5 14.5 0 0 0 2.073-4.89c.465-2.632.503-5.315.113-7.958a27.3 27.3 0 0 1 .169-8.102c.961-4.532 3.863-8.28 6.652-11.92 1.15-1.498 2.337-3.033 3.355-4.603a71.7 71.7 0 0 0 6.369-13.598 92 92 0 0 1 4.748-10.992c7.538-14.133 24.497-19.718 40.967-13.562a14.1 14.1 0 0 1 5.144 3.052 174 174 0 0 0 3.222 3.069c4.335 4.086 8.103 7.62 10.892 13.83 3.675 8.11 5.183 16.954 4.391 25.749a16.56 16.56 0 0 0 1.112 7.976c.263.785.546 1.606.81 2.552a18.1 18.1 0 0 1 .32 6.781 19.4 19.4 0 0 0 .132 5.817c.547 2.516 2.676 4.318 4.956 6.228a17.5 17.5 0 0 1 5.276 6.049c.61 1.631.892 3.356.83 5.086a37.8 37.8 0 0 1-.999 8.226.92.92 0 0 1-.351.533 1.02 1.02 0 0 1-.629.199m-113.214-1.785h112.517c.522-2.347.794-4.739.81-7.138a11.5 11.5 0 0 0-.697-4.407 15.7 15.7 0 0 0-4.768-5.354c-2.393-2.034-4.88-4.122-5.653-7.227a21.1 21.1 0 0 1-.169-6.316 17 17 0 0 0-.245-6.175 48 48 0 0 0-.792-2.48 18.14 18.14 0 0 1-1.206-8.69c.771-8.508-.685-17.064-4.24-24.911-2.638-5.87-6.105-9.118-10.477-13.223-1.036-.981-2.129-1.998-3.241-3.105a12.35 12.35 0 0 0-4.447-2.623c-15.546-5.781-31.394-.57-38.536 12.688a92 92 0 0 0-4.635 10.706 73.3 73.3 0 0 1-6.502 13.972c-1.055 1.606-2.261 3.177-3.429 4.694-2.808 3.568-5.446 7.137-6.332 11.224a25.6 25.6 0 0 0-.132 7.584c.381 2.85.292 5.74-.263 8.565a15.9 15.9 0 0 1-2.337 5.496 25 25 0 0 1-4.202 4.247l-.207.16a51 51 0 0 0-9.272 9.654 20 20 0 0 0-1.545 2.606z" fill="#231F20"/><path d="M459.925 127.837s3.769 52.195-15.452 48.698c-25.665-5.175-14-41.846-14-41.846l.433-6.852.961-15.935.923-14.9 26.985-.285 1.036 12.169.32 3.944z" fill="#fff"/><path d="M446.226 177.623a11 11 0 0 1-1.997-.196 20.3 20.3 0 0 1-7.788-3.059 19.1 19.1 0 0 1-5.723-5.863c-7.707-12.349-1.885-32.12-1.263-33.905l2.318-37.58a.9.9 0 0 1 .301-.61 1 1 0 0 1 .66-.247l26.984-.285c.245-.001.481.084.662.24a.9.9 0 0 1 .318.599l1.357 16.059-1.225 15.079c.17 2.338 2.563 38.205-8.498 47.52-1.666 1.447-3.845 2.249-6.106 2.248m-12.569-79.622-2.261 36.831a1 1 0 0 1 0 .214c0 .214-6.444 20.664 1.037 32.638a17.3 17.3 0 0 0 5.188 5.279 18.4 18.4 0 0 0 7.041 2.751 7.5 7.5 0 0 0 3.419-.069 7.2 7.2 0 0 0 2.988-1.573c10.496-8.815 7.896-45.717 7.858-46.074v-.143l1.225-15.007-1.282-15.114z" fill="#231F20"/><path d="M461.074 112.83c-2.1 3.485-5.086 6.417-8.687 8.53-5.766 3.569-13.907 6.709-20.973 5.621l.471-15.079a60.6 60.6 0 0 0 15.565 0 41.4 41.4 0 0 0 13.379-2.962z" fill="#231F20"/><path d="M434.203 128.087a20.6 20.6 0 0 1-3.015-.232.97.97 0 0 1-.572-.317.88.88 0 0 1-.219-.593l.49-15.078a.8.8 0 0 1 .093-.358.85.85 0 0 1 .246-.285.87.87 0 0 1 .735-.196 59.2 59.2 0 0 0 15.301 0 40.7 40.7 0 0 0 13.077-2.891.97.97 0 0 1 .886 0 .9.9 0 0 1 .326.293c.082.122.132.26.145.403l.321 3.944a.7.7 0 0 1-.114.481c-2.176 3.658-5.303 6.729-9.082 8.923-5.504 3.573-11.952 5.619-18.618 5.906m-1.884-1.784c5.653.589 12.814-1.481 19.503-5.603 3.427-1.97 6.287-4.71 8.329-7.977l-.226-2.498a47.4 47.4 0 0 1-12.437 2.498c-4.89.647-9.847.713-14.755.196z" fill="#231F20"/><path d="M447.357 115.489h-2.77c-6.289.061-12.346-2.244-16.841-6.41s-7.058-9.851-7.128-15.807a168 168 0 0 1 2.054-20.61s10.873-3.676 19.522-6.78c14.434-5.158 18.316-12.492 18.316-12.492a52.4 52.4 0 0 0 3.392 14.276 65 65 0 0 0 6.426 9.368s.433 11.063.471 15.703a21.4 21.4 0 0 1-1.687 8.626 22.4 22.4 0 0 1-5.049 7.356 23.8 23.8 0 0 1-7.641 4.961 24.9 24.9 0 0 1-9.065 1.809" fill="#fff"/><path d="M444.322 116.435c-6.513-.005-12.76-2.445-17.383-6.789s-7.248-10.242-7.302-16.41c.259-6.95.951-13.879 2.072-20.752a.86.86 0 0 1 .199-.452.93.93 0 0 1 .423-.28c.113 0 11.043-3.765 19.523-6.798 13.831-4.943 17.75-12.028 17.788-12.099a.9.9 0 0 1 .413-.566c.211-.13.467-.177.714-.13a.97.97 0 0 1 .606.38.87.87 0 0 1 .152.673 52 52 0 0 0 3.316 14.043 65.7 65.7 0 0 0 6.256 9.333.94.94 0 0 1 .207.535c0 .108.415 11.135.472 15.721a22.3 22.3 0 0 1-1.79 8.982 23.35 23.35 0 0 1-5.285 7.648 24.9 24.9 0 0 1-7.974 5.149 25.9 25.9 0 0 1-9.448 1.865h-3.034zm-20.728-43.041a160 160 0 0 0-1.885 19.896c.074 5.648 2.484 11.043 6.712 15.027s9.937 6.238 15.901 6.28h3.015c6.031-.066 11.787-2.396 16.006-6.478s6.554-9.582 6.494-15.293c0-4.14-.396-13.597-.471-15.381a63 63 0 0 1-6.37-9.333 53 53 0 0 1-3.184-12.134c-2.262 2.659-7.312 7.262-17.261 10.831-7.406 2.641-16.677 5.782-19.014 6.585z" fill="#231F20"/><path d="M444.455 93.076a32 32 0 0 1-3.09-.16 1.95 1.95 0 0 1-.803-.275 1.84 1.84 0 0 1-.592-.582c-1.884-2.801 2.299-13.865 3.599-17.202a.97.97 0 0 1 .518-.508c.235-.1.502-.11.745-.027.237.088.429.26.535.48s.116.47.03.698c-2.902 7.423-4.654 14.721-3.769 15.614 2.19.19 4.395.153 6.577-.108.218.022.422.112.58.255s.26.334.29.54a.9.9 0 0 1-.123.594.97.97 0 0 1-.483.396c-1.33.177-2.671.272-4.014.285m12.138-10.2c.905-.01 1.62-1.727 1.595-3.836-.024-2.108-.778-3.81-1.684-3.8-.905.009-1.619 1.726-1.595 3.835s.779 3.81 1.684 3.801m-21.618-.489c.906-.01 1.62-1.726 1.595-3.835-.024-2.11-.778-3.811-1.683-3.802-.906.01-1.62 1.727-1.595 3.836.024 2.109.778 3.81 1.683 3.801" fill="#231F20"/><path d="M431.359 127.837c-5.126-2.605-13.191 1.285-14.001 3.997-.811 2.713 2.393 45.486 14.001 52.07 5.031 2.873 14.076-7.369 14.076-7.369s-12.946-5.371-14.076-48.698" fill="#fff"/><path d="M433.356 185.332a5 5 0 0 1-2.506-.625c-12.249-6.959-15.283-50.124-14.435-53.104.528-1.785 3.072-3.462 5.277-4.355a12.5 12.5 0 0 1 5.032-1.177c1.748-.04 3.484.283 5.087.945a.93.93 0 0 1 .374.334c.09.141.137.304.135.469 1.092 41.881 13.397 47.823 13.511 47.877a1 1 0 0 1 .35.251.9.9 0 0 1 .196.374.94.94 0 0 1-.188.803c-.848.945-7.444 8.208-12.833 8.208m-5.936-57.423a13.2 13.2 0 0 0-4.956 1.035c-1.753.518-3.238 1.639-4.164 3.14-.321 1.124.188 12.188 2.374 24.233 2.676 14.704 6.652 24.233 11.174 26.767 3.204 1.784 9.422-3.569 12.117-6.389-3.241-2.337-12.531-12.17-13.568-48.304a7.9 7.9 0 0 0-2.977-.482" fill="#231F20"/><path d="M459.926 127.837c5.107-2.605 13.191 1.285 13.982 3.997.792 2.713-2.393 45.486-13.982 52.07-5.031 2.873-14.076-7.369-14.076-7.369s12.889-5.371 14.076-48.698" fill="#fff"/><path d="M457.853 185.332c-5.37 0-11.966-7.263-12.814-8.208a1 1 0 0 1-.195-.381.94.94 0 0 1-.012-.422.9.9 0 0 1 .202-.378.95.95 0 0 1 .363-.247c.114 0 12.4-5.996 13.493-47.877a.9.9 0 0 1 .144-.463 1 1 0 0 1 .364-.34 12.6 12.6 0 0 1 5.087-.945c1.748.04 3.466.442 5.033 1.177 2.204.893 4.748 2.517 5.276 4.355.867 2.98-2.167 46.145-14.435 53.104a4.9 4.9 0 0 1-2.506.625m-10.59-8.601c2.827 2.962 8.875 8.226 12.098 6.388 4.541-2.569 8.517-12.098 11.174-26.766a125 125 0 0 0 2.393-24.233c-.943-1.495-2.431-2.612-4.183-3.141a10.94 10.94 0 0 0-7.933-.517c-1.037 36.099-10.308 45.931-13.549 48.269" fill="#231F20"/><path d="m432.734 97.002 26.985-.285s-4.108 13.49-14.435 12.169c-10.326-1.32-12.55-11.884-12.55-11.884" fill="#fff"/><path d="M446.735 109.904a12 12 0 0 1-1.564-.108c-10.892-1.391-13.361-12.49-13.379-12.616a.87.87 0 0 1 .199-.755.95.95 0 0 1 .332-.245 1 1 0 0 1 .411-.088l26.984-.285a.95.95 0 0 1 .434.085.9.9 0 0 1 .339.271.94.94 0 0 1 .183.392.9.9 0 0 1-.014.43c-.169.552-4.07 12.919-13.925 12.919m-12.739-11.903c.867 2.623 3.769 9.083 11.42 10.065s11.683-7.138 12.945-10.315z" fill="#231F20"/><path d="m381.723 145.414-34.804 53.533-34.164-18.754-20.314 11.795s49.126 62.081 73.19 51.57c11.174-4.871 46.958-56.977 46.958-56.977z" fill="#2945FF"/><path d="M481.559 241.292h-.283a1 1 0 0 1-.333-.168.88.88 0 0 1-.347-.619.9.9 0 0 1 .04-.355c.207-.678 21.369-68.184 11.626-92.595a.9.9 0 0 1 .036-.725.98.98 0 0 1 .567-.488c.25-.085.525-.073.766.034.24.107.426.3.516.537 9.987 24.982-10.685 91.006-11.571 93.754a.93.93 0 0 1-.394.48 1.03 1.03 0 0 1-.623.145m-85.703 3.194a1 1 0 0 1-.642-.228.9.9 0 0 1-.319-.575c-.094-.589-8.743-60.082-11.645-73.483a.9.9 0 0 1 .148-.687c.14-.202.357-.346.606-.402.252-.047.514.001.729.134a.93.93 0 0 1 .42.58c2.921 13.473 11.57 73.019 11.664 73.608a.9.9 0 0 1-.191.678 1 1 0 0 1-.638.357zm104.358-26.606a1 1 0 0 1-.377 0 .96.96 0 0 1-.521-.496.9.9 0 0 1-.007-.7l20.483-46.948c.1-.223.288-.4.524-.493a1.03 1.03 0 0 1 .739-.007.96.96 0 0 1 .528.494.87.87 0 0 1 0 .702l-20.465 46.948a1 1 0 0 1-.377.372c-.16.088-.342.132-.527.128m46.826-69.754a1.03 1.03 0 0 1-.546-.166.96.96 0 0 1-.359-.422c-2.374-5.675-9.686-8.441-9.742-8.477a1 1 0 0 1-.334-.194 1 1 0 0 1-.23-.3.91.91 0 0 1 .175-1.044q.137-.139.318-.218.182-.079.381-.086.2-.007.387.058c.339.125 8.159 3.087 10.854 9.511a.86.86 0 0 1-.22 1.007 1 1 0 0 1-.326.189.8.8 0 0 1-.358.142m0-12.562a1.2 1.2 0 0 1-.434-.089.94.94 0 0 1-.445-.568.9.9 0 0 1 .106-.699l8.273-13.526a1 1 0 0 1 .601-.415c.249-.06.513-.026.737.093.219.123.38.323.446.556a.9.9 0 0 1-.089.694l-8.291 13.526a1 1 0 0 1-.391.33 1.05 1.05 0 0 1-.513.098m7.105 2.07a1.2 1.2 0 0 1-.415 0 1 1 0 0 1-.307-.22.9.9 0 0 1-.194-.315.88.88 0 0 1 .049-.714l6.369-12.242a.95.95 0 0 1 .554-.462c.242-.079.507-.063.737.043.23.107.406.295.489.524a.87.87 0 0 1-.046.698l-6.35 12.259a1 1 0 0 1-.383.326 1.04 1.04 0 0 1-.503.103m3.221 4.425a1 1 0 0 1-.395 0 .95.95 0 0 1-.514-.509.87.87 0 0 1 .024-.705l6.105-13.133a.96.96 0 0 1 .541-.48c.239-.086.505-.081.741.016a.95.95 0 0 1 .517.508.88.88 0 0 1-.009.705l-6.124 13.116a.9.9 0 0 1-.368.365 1 1 0 0 1-.518.117m-263.02 36.331a1.05 1.05 0 0 1-.536-.154 1 1 0 0 1-.369-.399c-5.125-11.206 3.279-16.417 3.354-16.47.218-.128.481-.169.731-.116s.468.198.607.401a.88.88 0 0 1 .138.69.9.9 0 0 1-.149.329.9.9 0 0 1-.271.248c-.321.197-7.067 4.479-2.62 14.169a.88.88 0 0 1 .009.706.95.95 0 0 1-.517.507.9.9 0 0 1-.377.089" fill="#231F20"/><path d="M75.305 430.781s-2.111 9.779 1.149 11.938 31.375-6.852 30.565-9.885c-.811-3.034-16.753-4.586-16.753-4.586s-12.53 3.443-14.961 2.533" fill="#2945FF"/><path d="M78.244 443.897a4.6 4.6 0 0 1-2.336-.446c-3.656-2.427-1.753-11.795-1.527-12.848a.86.86 0 0 1 .168-.367.9.9 0 0 1 .322-.258 1 1 0 0 1 .81 0c1.3.536 8.31-.892 14.322-2.569a.8.8 0 0 1 .358 0c3.9.375 16.677 1.874 17.581 5.246.302 1.16-.942 2.106-1.884 2.73-4.956 3.194-21.256 8.512-27.814 8.512m-2.186-12.098c-.66 3.568-.904 8.922.943 10.189.772.517 5.86 0 14.717-2.713s14.057-5.478 14.396-6.37c-.358-1.178-7.537-2.944-15.753-3.747-2.224.606-10.647 2.873-14.303 2.641" fill="#231F20"/><path d="M34.507 430.781s-.34 11.314.96 12.706 30.151-1.535 28.794-5.229-13.02-7.477-13.02-7.477z" fill="#2945FF"/><path d="M38.822 444.7a7.44 7.44 0 0 1-4.051-.624c-1.395-1.482-1.3-9.815-1.206-13.33a.87.87 0 0 1 .289-.608.97.97 0 0 1 .653-.249H51.56c1.225.411 12.004 4.033 13.587 8.012.207.536.301 1.589-1.432 2.588-3.637 2.105-17.751 4.211-24.893 4.211m-2.695-1.891c2.3.642 19.56-.893 25.647-3.355 1.432-.589 1.602-.964 1.602-.964-.943-2.302-7.971-5.353-12.287-6.816H35.43c-.094 4.782.132 10.064.697 11.135" fill="#231F20"/><path d="m33.207 393.451 1.3 37.33s12.343 4.604 16.734 0l3.43-41.042z" fill="#fff"/><path d="M44.929 433.708a35.5 35.5 0 0 1-10.76-2.016.94.94 0 0 1-.43-.316.86.86 0 0 1-.173-.487l-1.395-37.42a.88.88 0 0 1 .22-.593.97.97 0 0 1 .572-.317l21.538-3.694a1.04 1.04 0 0 1 .792.214.84.84 0 0 1 .247.33.8.8 0 0 1 .054.402l-3.41 41.042a.92.92 0 0 1-.226.535 9.3 9.3 0 0 1-3.255 1.865 9.7 9.7 0 0 1-3.774.455m-9.422-3.569c3.58 1.213 11.683 3.159 14.905.232l3.298-39.561-19.541 3.408z" fill="#231F20"/><path d="M90.267 388.205v40.043a18.4 18.4 0 0 1-7.182 2.85 18.8 18.8 0 0 1-7.78-.317l-9.29-48.179z" fill="#fff"/><path d="M79.977 432.262c-1.661 0-3.315-.21-4.918-.624a.93.93 0 0 1-.447-.254.86.86 0 0 1-.231-.442l-9.29-48.18a.86.86 0 0 1 .036-.434.9.9 0 0 1 .65-.582 1 1 0 0 1 .463-.001l24.346 5.603c.206.042.39.15.521.306.13.157.2.351.195.551v40.042a.9.9 0 0 1-.092.382.95.95 0 0 1-.247.314c-3.206 2.167-7.047 3.327-10.986 3.319m-3.863-2.212a18 18 0 0 0 6.84.144 17.6 17.6 0 0 0 6.35-2.41v-38.919l-22.122-5.068z" fill="#231F20"/><path d="m26.8 289.347-2.976 110.1s46.77 12.491 77.014-5.996l-21.557-93.326z" fill="#231F20"/><path d="M58.118 404.39a151.8 151.8 0 0 1-34.56-4.087.9.9 0 0 1-.503-.322.83.83 0 0 1-.175-.552l2.978-110.1a.8.8 0 0 1 .093-.38.99.99 0 0 1 1.037-.477l52.537 10.707a.94.94 0 0 1 .465.238c.127.12.214.273.251.44l21.52 93.326a.86.86 0 0 1-.05.535.9.9 0 0 1-.365.411c-12.983 7.994-29.057 10.261-43.228 10.261m-33.334-5.621c5.898 1.427 47.467 10.617 74.998-5.746l-21.256-92.149-50.878-10.421z" fill="#231F20"/><path d="M83.445 268.754s8.047-27.587 11.947-30.21c3.901-2.623 11.476-5.853 11.476-2.159s-5.653 33.279-14.396 32.352-9.027.017-9.027.017" fill="#fff"/><path d="M92.886 269.646h-.528c-6.313-.66-7.933-.321-8.254-.214a.96.96 0 0 1-.904.214.94.94 0 0 1-.57-.404.85.85 0 0 1-.108-.666v-.161c.998-3.408 8.272-27.873 12.267-30.567 2.091-1.41 8.706-5.086 11.645-3.569.424.212.773.535 1.007.931s.343.847.312 1.299c0 3.355-4.164 25.803-11.155 31.71a5.82 5.82 0 0 1-3.712 1.427m-6.558-2.123a59 59 0 0 1 6.237.41 3.8 3.8 0 0 0 1.538-.241 3.7 3.7 0 0 0 1.289-.829c6.162-5.211 10.533-26.767 10.533-30.336 0-.499-.188-.607-.301-.642-1.319-.66-6.03 1.07-9.686 3.569-2.525 1.784-7.97 17.594-11.136 28.212q.621-.143 1.526-.143" fill="#231F20"/><path d="M125.636 262.17c-.735 0-32.035-4.604-32.035-4.604l17.714-43.076 34.634 3.301z" fill="#fff"/><path d="M125.636 263.133c-.735 0-24.893-3.568-32.28-4.621a1 1 0 0 1-.39-.141.9.9 0 0 1-.288-.288.95.95 0 0 1 0-.785l17.751-43.147a.87.87 0 0 1 .386-.442c.179-.1.388-.14.594-.112l34.635 3.302c.147.018.288.067.412.145a.95.95 0 0 1 .304.301.82.82 0 0 1 0 .803l-20.238 44.45a.94.94 0 0 1-.359.393 1 1 0 0 1-.527.142m-30.829-6.209c11.307 1.641 26.872 3.925 30.245 4.354l19.465-42.72-32.656-3.123z" fill="#231F20"/><path d="M21.373 191.096c-3.1.046-6.159.69-8.989 1.891-4.918 1.945-9.704 5.353-11.06 10.189-1.075 3.962.3 8.155 2.147 11.849s4.146 7.28 5.088 11.277c.942 3.998.113 8.709-3.316 11.189a45 45 0 0 0 12.663-6.174c2.276-1.576 3.838-3.909 4.372-6.531a13.1 13.1 0 0 0-1.282-6.317 27.1 27.1 0 0 1-2.487-9.333 8.5 8.5 0 0 1 1.026-4.67 9.13 9.13 0 0 1 3.42-3.503c2.64-1.302 11.043-.749 9.97-5.353-.754-3.48-8.556-4.461-11.552-4.514" fill="#fff"/><path d="M5.243 238.383a1 1 0 0 1-.479-.116.9.9 0 0 1-.35-.33.88.88 0 0 1-.098-.621.92.92 0 0 1 .343-.539c3.392-2.444 3.768-7.137 2.977-10.296a35 35 0 0 0-3.524-8.208 141 141 0 0 1-1.507-2.855c-2.469-4.979-3.147-8.923-2.186-12.491 1.658-6.05 7.99-9.351 11.608-10.707a24.7 24.7 0 0 1 9.422-1.963c3.128 0 11.475 1.071 12.474 5.353.128.469.154.958.076 1.436a3.45 3.45 0 0 1-.528 1.348c-1.244 1.785-4.202 2.284-6.803 2.73a14.2 14.2 0 0 0-3.203.75 8.3 8.3 0 0 0-3.033 3.175 7.76 7.76 0 0 0-.906 4.195 25.6 25.6 0 0 0 2.28 8.654l.151.375a13.9 13.9 0 0 1 1.338 6.745c-.557 2.859-2.24 5.411-4.71 7.138a46.6 46.6 0 0 1-12.928 6.317 1.1 1.1 0 0 1-.414-.09m15.904-46.395a23 23 0 0 0-8.404 1.784c-3.298 1.303-9.045 4.283-10.496 9.583-.848 3.105-.189 6.674 2.072 11.26a82 82 0 0 0 1.47 2.819 36.2 36.2 0 0 1 3.77 8.637 13.12 13.12 0 0 1-1.094 9.261 34.3 34.3 0 0 0 8.932-4.729c2.03-1.451 3.436-3.549 3.957-5.906a12.2 12.2 0 0 0-1.243-5.907l-.151-.392a26.6 26.6 0 0 1-2.393-9.244 9.4 9.4 0 0 1 1.175-5.109 10.05 10.05 0 0 1 3.78-3.813 15.2 15.2 0 0 1 3.77-.928c2.11-.357 4.748-.821 5.54-1.963a1.53 1.53 0 0 0 .188-1.392c-.66-2.819-7.538-3.836-10.647-3.89h-.207z" fill="#231F20"/><path d="M25.067 192.291a8.2 8.2 0 0 0-1.413 5.478 6.3 6.3 0 0 0 1.224 3.569 5.25 5.25 0 0 0 1.913 1.46c.75.338 1.573.504 2.403.485a2.94 2.94 0 0 0 2.016-.678c.42-.427.7-.96.81-1.534 1.13-4.033-1.262-16.328-6.953-8.78" fill="#231F20"/><path d="M29.06 204.122a6.6 6.6 0 0 1-2.735-.571 6.2 6.2 0 0 1-2.201-1.642 7.16 7.16 0 0 1-1.413-4.086 8.95 8.95 0 0 1 1.601-6.049c2.261-3.034 4.146-3.034 5.295-2.516 3.204 1.409 4.203 8.922 3.336 11.991a3.97 3.97 0 0 1-1.074 1.945 3.9 3.9 0 0 1-2.657.928zm-.659-13.33c-.904 0-1.884 1.214-2.581 2.017a7.34 7.34 0 0 0-1.244 4.889 5.57 5.57 0 0 0 1.018 3.123c.421.504.965.906 1.585 1.17s1.298.383 1.976.347c.5.015.992-.129 1.394-.411.279-.332.466-.725.547-1.142.735-2.605-.264-8.922-2.299-9.921a1 1 0 0 0-.396-.072" fill="#231F20"/><path d="M51.165 219.861a6.7 6.7 0 0 1-2.958 1.574 7 7 0 0 1-3.392-.022 16.1 16.1 0 0 1-6.991-3.105c-3.967-2.954-6.986-6.896-8.717-11.385a24.4 24.4 0 0 1-1.082-14.025c2.223-9.476 12.814-18.469 23.423-14.276a13.4 13.4 0 0 1 4.694 3.172 12.5 12.5 0 0 1 2.843 4.751 4.2 4.2 0 0 1 2.28.035c.74.222 1.395.644 1.885 1.214 2.657 2.766 2.374 5.586.697 8.69-2.751 5.086-6.049 9.904-8.555 15.097-1.489 3.051-2.186 6.352-4.127 8.28" fill="#fff"/><path d="M46.624 222.448a13 13 0 0 1-1.884-.16 17 17 0 0 1-7.425-3.266c-4.126-3.046-7.266-7.128-9.062-11.781a25.1 25.1 0 0 1-1.095-14.539 21.4 21.4 0 0 1 4.101-8.292 22.9 22.9 0 0 1 7.319-5.984 16 16 0 0 1 6.572-1.771 16.1 16.1 0 0 1 6.732 1.111 14.2 14.2 0 0 1 4.686 3.086 13.3 13.3 0 0 1 3.02 4.587 5.45 5.45 0 0 1 2.33.379 5.2 5.2 0 0 1 1.91 1.316c3.487 3.658 2.149 7.281.849 9.707-1.15 2.106-2.394 4.176-3.6 6.192-1.715 2.873-3.486 5.836-4.956 8.923-.47.981-.866 1.998-1.243 2.98a15.3 15.3 0 0 1-3.015 5.549 7 7 0 0 1-2.399 1.51 7.3 7.3 0 0 1-2.84.453m-.66-43.986a15.1 15.1 0 0 0-6.595 1.588 20.9 20.9 0 0 0-6.682 5.462 19.6 19.6 0 0 0-3.757 7.564 23.73 23.73 0 0 0 1.057 13.527c1.663 4.33 4.558 8.14 8.365 11.009a15.3 15.3 0 0 0 6.576 2.927c3.317.482 4.749-.5 5.521-1.285a14.2 14.2 0 0 0 2.62-4.925c.395-1.017.81-2.07 1.3-3.105 1.507-3.105 3.298-6.103 5.031-8.922 1.206-1.999 2.431-4.069 3.562-6.139 1.715-3.176 1.545-5.478-.566-7.691a3.04 3.04 0 0 0-1.408-.937 3.2 3.2 0 0 0-1.72-.062c-.242.09-.511.09-.753 0a1.03 1.03 0 0 1-.49-.553 11.5 11.5 0 0 0-2.618-4.484 12.35 12.35 0 0 0-4.392-2.993 13.7 13.7 0 0 0-5.05-.981" fill="#231F20"/><path d="M60.437 198.233s6.256 5.603 5.653 7.138-4.033 1.374-4.033 1.374" fill="#fff"/><path d="M62.49 207.709H62a.95.95 0 0 1-.65-.299.85.85 0 0 1-.235-.647.9.9 0 0 1 .32-.61 1 1 0 0 1 .679-.229c1.168 0 2.845-.16 3.09-.785.245-.624-2.506-3.569-5.408-6.245a.9.9 0 0 1-.271-.634c0-.236.097-.464.271-.633a.95.95 0 0 1 .669-.264q.188 0 .362.068a1 1 0 0 1 .307.196c3.071 2.748 6.576 6.388 5.88 8.172-.698 1.785-3.393 1.91-4.523 1.91" fill="#231F20"/><path d="M62.075 234.065c-7.406.178-19.598-7.477-19.673-7.744a133 133 0 0 1-2.544-13.901 9.95 9.95 0 0 0 4.407-2.799 9.16 9.16 0 0 0 2.245-4.553c1.583-6.353 7.877-7.031 10.798-15.311 3.505 1.624 3.768 6.621 4.579 9.761 1.055 4.426 1.884 8.922 2.826 13.312.528 2.82-7.104 4.568-8.65 4.033 1.452 4.158 1.452 4.158 6.012 17.202" fill="#fff"/><path d="M61.85 234.957c-7.086 0-19.994-7.138-20.351-8.405a134 134 0 0 1-2.563-14.025.86.86 0 0 1 .166-.626.94.94 0 0 1 .569-.356c.17 0 4.503-1.07 5.917-6.763.836-2.806 2.566-5.299 4.956-7.138 2.687-2.206 4.715-5.043 5.879-8.226a.8.8 0 0 1 .194-.329.8.8 0 0 1 .333-.206.97.97 0 0 1 .773 0c3.335 1.552 4.108 5.496 4.73 8.672.113.607.226 1.178.358 1.785 1.036 4.389 1.884 8.922 2.826 13.347a2.8 2.8 0 0 1-.24 1.578 3 3 0 0 1-1.079 1.224 14.2 14.2 0 0 1-6.934 2.355c1.093 3.141 1.526 4.408 5.653 16.06a.87.87 0 0 1-.113.803 1.1 1.1 0 0 1-.336.261q-.197.097-.418.114zm-18.599-9.118c1.583 1.159 11.08 6.691 17.506 7.28-4.127-11.831-4.183-11.956-5.653-16.06a.83.83 0 0 1-.018-.489.87.87 0 0 1 .263-.421.96.96 0 0 1 .46-.232 1 1 0 0 1 .52.036c2.423.04 4.798-.647 6.783-1.963.51-.411.735-.785.66-1.124a273 273 0 0 0-2.808-13.277 26 26 0 0 1-.358-1.784c-.471-2.409-1.055-5.353-2.827-6.834-1.315 3.009-3.34 5.694-5.916 7.851-2.129 1.62-3.68 3.818-4.448 6.299a10.24 10.24 0 0 1-2.214 4.698 11 11 0 0 1-4.306 3.136c.32 2.284 1.3 9.065 2.356 12.884" fill="#231F20"/><path d="M63.79 209.493c-.38.387-.845.692-1.361.894a4.08 4.08 0 0 1-3.234-.118 3.8 3.8 0 0 1-1.285-.99" fill="#fff"/><path d="M60.794 211.617h-.17a5 5 0 0 1-1.918-.542 4.7 4.7 0 0 1-1.511-1.243.9.9 0 0 1-.268-.293.86.86 0 0 1 .188-1.076 1 1 0 0 1 .354-.196 1 1 0 0 1 .793.096.9.9 0 0 1 .29.274c.242.311.549.572.902.765a3.1 3.1 0 0 0 1.152.359 3.87 3.87 0 0 0 2.45-.982.97.97 0 0 1 .659-.255c.246 0 .483.092.66.255a.9.9 0 0 1 .206.291.85.85 0 0 1-.207.976 5.95 5.95 0 0 1-3.58 1.571m-4.73 5.174a8.8 8.8 0 0 1-3.384-.11 8.6 8.6 0 0 1-3.06-1.371s1.884 6.692 8.46 7.299z" fill="#231F20"/><path d="M58.08 223.501c-7.104-.66-9.196-7.655-9.271-7.958a.85.85 0 0 1 .03-.566.9.9 0 0 1 .384-.434 1 1 0 0 1 1.131.107 7.7 7.7 0 0 0 2.693 1.17c.97.218 1.976.251 2.96.097a1 1 0 0 1 .643.11c.193.108.34.278.413.479l2.016 5.835a.82.82 0 0 1-.151.839 1 1 0 0 1-.383.258 1.05 1.05 0 0 1-.465.063m-6.501-6.138c1.065 1.94 2.892 3.407 5.088 4.086l-1.282-3.694a11.2 11.2 0 0 1-3.806-.392m7.044-19.318c.37-.056.548-.82.399-1.705s-.571-1.558-.941-1.502-.549.819-.4 1.705c.15.885.572 1.558.942 1.502" fill="#231F20"/><path d="M51.524 202.569a6.25 6.25 0 0 0-2.055-2.73 9 9 0 0 0-2.166-1.624 3.3 3.3 0 0 0-2.695-.178 2.9 2.9 0 0 0-.947.74 2.7 2.7 0 0 0-.542 1.044 4.8 4.8 0 0 0 0 2.32 9.47 9.47 0 0 0 2.288 4.535 10.25 10.25 0 0 0 4.383 2.835l-.32-.214" fill="#fff"/><path d="M49.714 210.421a.7.7 0 0 1-.264 0 11.35 11.35 0 0 1-4.776-3.116 10.5 10.5 0 0 1-2.516-4.95 5.6 5.6 0 0 1 0-2.694 3.5 3.5 0 0 1 .726-1.378 3.75 3.75 0 0 1 1.271-.96 4.2 4.2 0 0 1 3.505.179 10.1 10.1 0 0 1 2.412 1.784 7.15 7.15 0 0 1 2.299 3.159.85.85 0 0 1-.1.677.95.95 0 0 1-.578.411 1 1 0 0 1-.717-.108.92.92 0 0 1-.433-.552 5.26 5.26 0 0 0-1.884-2.302 8.3 8.3 0 0 0-1.885-1.481 2.34 2.34 0 0 0-1.884-.161 2 2 0 0 0-.621.512 1.9 1.9 0 0 0-.359.702 4.3 4.3 0 0 0 0 1.909 8.7 8.7 0 0 0 1.853 3.827 9.36 9.36 0 0 0 3.499 2.597c.214-.01.426.046.603.161l.226.142c.19.126.33.31.395.521a.9.9 0 0 1-.037.639.9.9 0 0 1-.303.329 1 1 0 0 1-.432.153" fill="#231F20"/><path d="M66.089 228.069s-25.27-9.672-33.203-1.231c-7.933 8.44-13.511 41.131-10.138 83.512 28.077 8.494 61.714-9.708 61.714-9.708s-6.144-67.362-18.373-72.573" fill="#2945FF"/><path d="M119.021 255.746s7.839-16.363 9.309-14.74c1.47 1.624-1.225 9.226-1.225 9.226s7.802-10.153 9.516-9.35.49 8.922-3.429 14.864c-3.92 5.942-8.763 12.991-8.763 12.991z" fill="#fff"/><path d="M124.506 269.629h-.113a.96.96 0 0 1-.469-.173.9.9 0 0 1-.304-.381l-5.389-12.99a.79.79 0 0 1 0-.678c3.279-6.87 7.537-15.097 9.704-15.382.216-.03.436-.008.64.064s.386.191.529.346c.904 1.017.716 3.391.226 5.621 5.804-6.87 7.236-6.192 7.763-5.942.268.142.5.337.682.571s.309.501.374.785c.829 2.713-.754 9.6-4.089 14.757-3.863 5.996-8.744 12.956-8.8 13.027a1 1 0 0 1-.332.269 1 1 0 0 1-.422.106m-4.372-13.848 4.579 11.028c1.621-2.355 4.956-7.138 7.764-11.527 3.561-5.514 4.503-12.206 3.768-13.491-1.337.571-5.295 4.961-8.385 8.923a.95.95 0 0 1-.542.34 1 1 0 0 1-.645-.073.92.92 0 0 1-.439-.455.86.86 0 0 1-.032-.615 22.9 22.9 0 0 0 1.601-7.834 82.5 82.5 0 0 0-7.744 13.704z" fill="#231F20"/><path d="M55.367 240.846s16.846 47.127 34.409 45.735 38.498-18.63 38.498-18.63l-10.119-14.471s-25.684 15.256-30.81 9.386c-6.637-8.659-12-18.132-15.942-28.159-3.43-8.868-18.505-8.94-16.036 6.139" fill="#2945FF"/><path d="M92.225 248.751a25.1 25.1 0 0 1 4.636-6.46c2.43-2.07 9.761-6.085 8.781-2.462s-6.67 7.137-6.67 7.137-1.263 2.302-3.525 5.55" fill="#fff"/><path d="M95.448 253.355a.9.9 0 0 1-.508-.161.9.9 0 0 1-.264-.242.83.83 0 0 1 0-.989c2.186-3.159 3.448-5.443 3.467-5.46a.94.94 0 0 1 .32-.339s5.39-3.32 6.257-6.567a.84.84 0 0 0 0-.428c-.792-.232-5.126 1.945-7.293 3.783a24.5 24.5 0 0 0-4.41 6.192.93.93 0 0 1-.532.503 1 1 0 0 1-.75-.025.92.92 0 0 1-.493-.538.85.85 0 0 1 .08-.708 25.8 25.8 0 0 1 4.918-6.745c1.394-1.196 7.349-5.193 9.61-3.89.434.25 1.093.874.697 2.302-.942 3.569-5.766 6.799-6.859 7.495-.358.624-1.545 2.694-3.448 5.353a.95.95 0 0 1-.333.329 1 1 0 0 1-.459.135m-5.351 33.012a21 21 0 0 1-10.515-2.784c-10.986-6.246-26.136-38.437-26.777-39.811a.86.86 0 0 1-.057-.706.9.9 0 0 1 .195-.311.9.9 0 0 1 .309-.212 1 1 0 0 1 .748-.011 1 1 0 0 1 .315.203q.136.133.205.306c.15.339 15.565 33.047 26.042 39.007s22.952.161 34.673-7.137a.95.95 0 0 1 .706-.136.92.92 0 0 1 .594.385.86.86 0 0 1 .136.668.9.9 0 0 1-.4.564c-8.253 5.21-17.411 9.975-26.174 9.975" fill="#231F20"/><path d="M147.118 432.227v13.74s33.222-2.748 32.468-4.158c-.754-1.409-17.412-7.387-17.412-7.387z" fill="#2945FF"/><path d="M147.118 446.77a1.07 1.07 0 0 1-.64-.232.9.9 0 0 1-.302-.66v-13.651a.9.9 0 0 1 .085-.371.95.95 0 0 1 .235-.307 1 1 0 0 1 .754-.196l15.075 2.105a.4.4 0 0 1 .189 0c7.782 2.784 17.185 6.406 17.939 7.816a1.11 1.11 0 0 1 0 .946c-.302.499-1.093 1.784-33.222 4.497zm.942-13.508v11.634c12.362-1.034 25.684-2.444 29.755-3.354-2.544-1.303-9.422-4.033-15.886-6.335z" fill="#231F20"/><path d="M147.024 420.2v12.027l15.056 2.105.547-14.132z" fill="#fff"/><path d="M162.08 435.26h-.151l-15.075-2.123a.94.94 0 0 1-.581-.291.85.85 0 0 1-.229-.583v-12.028a.87.87 0 0 1 .276-.631.97.97 0 0 1 .666-.261h15.603q.192 0 .369.071a.9.9 0 0 1 .31.203.9.9 0 0 1 .202.302.85.85 0 0 1 .061.352l-.547 14.133a.9.9 0 0 1-.099.362 1 1 0 0 1-.24.298c-.163.118-.36.186-.565.196m-14.114-3.765 13.19 1.785.472-12.224h-13.681z" fill="#231F20"/><path d="m191.476 420.61 1.677 16.042 15.151-.517-.792-15.525z" fill="#fff"/><path d="M193.154 437.545a.97.97 0 0 1-.635-.23.88.88 0 0 1-.307-.573l-1.677-16.06a.9.9 0 0 1 .245-.696 1 1 0 0 1 .697-.286h16.036c.244 0 .478.089.654.249a.87.87 0 0 1 .289.608l.791 15.506a.92.92 0 0 1-.245.643.9.9 0 0 1-.298.208 1 1 0 0 1-.362.077l-15.075.536zm-.64-16.06 1.488 14.275 13.417-.5-.716-13.758z" fill="#231F20"/><path d="m205.817 291.792 3.185 131.495h-19.767l-8.65-91.114-16.394 92.595-18.957-.982 3.901-120.449z" fill="#231F20"/><path d="m164.19 425.66-18.957-.981a1 1 0 0 1-.35-.08.88.88 0 0 1-.48-.493.8.8 0 0 1-.055-.337l3.9-120.468a.87.87 0 0 1 .217-.538.95.95 0 0 1 .518-.3l56.551-11.546a1.06 1.06 0 0 1 .791.179.85.85 0 0 1 .265.298.8.8 0 0 1 .093.38l3.185 131.495a.94.94 0 0 1-.264.643 1.07 1.07 0 0 1-.679.267h-19.673a.97.97 0 0 1-.64-.235.88.88 0 0 1-.302-.586l-8.008-84.19-15.188 85.761a.87.87 0 0 1-.319.528.95.95 0 0 1-.605.203m-17.996-2.712 17.205.892 16.262-91.809a.88.88 0 0 1 .317-.535.98.98 0 0 1 .606-.215c.23.012.447.101.613.252s.27.352.292.569l8.574 90.293h17.939l-3.147-129.497-54.835 11.171z" fill="#231F20"/><path d="M237.758 245.967a38 38 0 0 1 10.986-5.05c3.618-.999 7.707-4.532 8.159-8.315a4.7 4.7 0 0 0-.264-1.785 19 19 0 0 0-2.638-5.246 1.3 1.3 0 0 0-.452-.428c-.396-.161-.829.107-1.15.339l-5.841 4.3a17.6 17.6 0 0 0-.245-3.569 1.74 1.74 0 0 0-.49-1.124 1.45 1.45 0 0 0-.792-.233 1.45 1.45 0 0 0-.791.233 3.8 3.8 0 0 0-1.15 1.142c-2.223 2.98-3.768 6.852-6.124 9.618-.471.536-5.144 3.98-4.824 4.301z" fill="#fff"/><path d="M237.757 246.859a1 1 0 0 1-.383-.081.9.9 0 0 1-.314-.222l-5.654-5.96a1 1 0 0 1-.226-.678c0-.625.547-1.107 3.581-3.569.603-.482 1.338-1.071 1.488-1.231a29.4 29.4 0 0 0 3.355-5.157 41 41 0 0 1 2.713-4.39 4.6 4.6 0 0 1 1.451-1.392 2.43 2.43 0 0 1 2.676.143c.458.452.744 1.036.81 1.659.094.625.189 1.285.226 1.928l4.334-3.195a2.16 2.16 0 0 1 .988-.508c.372-.081.76-.066 1.123.044.353.168.647.428.848.75a18.6 18.6 0 0 1 2.751 5.496c.26.698.369 1.438.32 2.177-.508 4.229-4.974 8.012-8.837 9.083a38 38 0 0 0-10.685 4.889.93.93 0 0 1-.565.214m-4.428-6.923 4.579 4.836a39.4 39.4 0 0 1 10.571-4.711c3.298-.91 7.085-4.176 7.537-7.566a3.7 3.7 0 0 0-.226-1.482 17.5 17.5 0 0 0-2.525-4.996l-.226.161-5.823 4.282a.96.96 0 0 1-.998 0 .93.93 0 0 1-.391-.337.86.86 0 0 1-.137-.484 17.2 17.2 0 0 0-.226-3.408 1.4 1.4 0 0 0-.207-.607.6.6 0 0 0-.471 0 3.1 3.1 0 0 0-.848.893 36 36 0 0 0-2.582 4.193 32 32 0 0 1-3.599 5.478q-.812.763-1.715 1.428c-.829.714-2.092 1.731-2.713 2.32" fill="#231F20"/><path d="M184.466 213.33s23.819 31.923 26.984 31.941 24.121-10.992 24.121-10.992l3.768 12.991s-20.615 19.45-31.035 16.684-43.549-22.198-43.549-22.198z" fill="#2945FF"/><path d="M166.603 203.283c-1.602.197-3.223.197-5.107.339s-4.051-.107-4.39-1.784c-.34-1.677 1.262-2.82.621-4.104a3 3 0 0 0-.791-.893c-3.012-2.74-4.822-6.455-5.069-10.403-.183-3.905 1.204-7.731 3.882-10.706-.453.232-1.037-.143-1.187-.607-.09-.489.018-.992.301-1.41a9.9 9.9 0 0 1 4.24-3.569c5.48-2.637 11.676-3.639 17.77-2.873 4.673.518 10.628 3.016 11.004 8.227a3.87 3.87 0 0 1-.668 2.65 4.26 4.26 0 0 1-2.29 1.65c0 5.639-2.261 9.868-5.295 14.436-2.025 3.129-4.842 5.73-8.197 7.566a13.4 13.4 0 0 1-4.824 1.481" fill="#fff"/><path d="M160.667 204.568c-2.487 0-4.146-.91-4.485-2.498a4.2 4.2 0 0 1 .358-2.356c.283-.696.434-1.16.283-1.481a2.4 2.4 0 0 0-.528-.571c-3.221-2.896-5.155-6.846-5.408-11.045-.203-3.711.941-7.376 3.241-10.386a1.94 1.94 0 0 1-.527-.821 2.7 2.7 0 0 1 .377-2.07c1.117-1.692 2.727-3.043 4.635-3.89 5.652-2.71 12.034-3.748 18.316-2.98 5.653.625 11.457 3.676 11.834 9.065a4.88 4.88 0 0 1-.663 2.939 5.3 5.3 0 0 1-2.295 2.075c-.151 5.8-2.77 10.225-5.446 14.276-2.104 3.253-5.032 5.957-8.518 7.869a14.7 14.7 0 0 1-5.182 1.589c-.961.107-1.884.16-2.939.196-.697 0-1.432 0-2.205.143zm-4.918-29.747c.142 0 .282.03.409.089a.9.9 0 0 1 .326.25.85.85 0 0 1 .224.572c0 .209-.08.412-.224.571-2.553 2.822-3.861 6.466-3.654 10.176s1.913 7.204 4.766 9.756c.406.324.745.717.998 1.16a3.39 3.39 0 0 1-.207 2.873 3.15 3.15 0 0 0-.339 1.463c.207.928 1.884 1.142 3.392 1.017l2.261-.125c.98 0 1.884 0 2.789-.214a12.1 12.1 0 0 0 4.504-1.374c3.215-1.752 5.911-4.244 7.839-7.245 3.297-4.979 5.2-8.922 5.163-13.954a.84.84 0 0 1 .2-.563.94.94 0 0 1 .535-.312 3.34 3.34 0 0 0 1.739-1.326 3.05 3.05 0 0 0 .484-2.064c-.358-4.979-6.557-6.995-10.175-7.388-5.899-.746-11.897.219-17.205 2.766a8.7 8.7 0 0 0-3.769 3.177c-.245.428-.245.642-.207.731z" fill="#231F20"/><path d="M187.953 187.527s5.313 5.763 4.597 7.137-3.863.928-3.863.928" fill="#fff"/><path d="M189.875 196.627q-.673-.001-1.338-.089a.97.97 0 0 1-.608-.369.88.88 0 0 1-.165-.666.9.9 0 0 1 .379-.574.98.98 0 0 1 .695-.158c.999.143 2.601.09 2.865-.428a21.4 21.4 0 0 0-4.466-6.228.864.864 0 0 1 .094-1.266.98.98 0 0 1 .688-.218.97.97 0 0 1 .65.307c2.6 2.837 5.54 6.549 4.729 8.172-.387.531-.92.953-1.54 1.22a3.95 3.95 0 0 1-1.983.297" fill="#231F20"/><path d="M185.785 179.3c3.109 1.785 2.978 6.514 3.392 9.494a234 234 0 0 1 1.432 12.616c.245 2.676-6.972 3.569-8.348 3.015l2.657 10.35-15.979-3.658-.66-8.744a9.4 9.4 0 0 0 4.422-2.248 8.7 8.7 0 0 0 2.532-4.104c2.035-5.764 0-17.488 0-17.488s7.537-.999 10.552.767" fill="#fff"/><path d="M184.919 215.667h-.113l-15.999-3.658a.96.96 0 0 1-.496-.291.87.87 0 0 1-.22-.512l-.64-8.761a.86.86 0 0 1 .208-.624.95.95 0 0 1 .602-.322 8.44 8.44 0 0 0 3.946-2.048 7.77 7.77 0 0 0 2.235-3.698c1.884-5.496-.132-16.934-.151-17.059a.9.9 0 0 1 .17-.678c.158-.192.387-.319.64-.357.811-.107 8.047-.982 11.307.91s3.354 5.514 3.636 8.529c0 .572.113 1.107.189 1.606a283 283 0 0 1 1.432 12.652 2.65 2.65 0 0 1-.361 1.477 2.84 2.84 0 0 1-1.128 1.075 13.66 13.66 0 0 1-6.557 1.606l2.336 9.065a.87.87 0 0 1-.175.767.9.9 0 0 1-.333.252 1 1 0 0 1-.415.087zm-15.075-5.264 13.812 3.159-2.299-8.922a.85.85 0 0 1 .026-.49.9.9 0 0 1 .295-.403.97.97 0 0 1 .998-.107 11.07 11.07 0 0 0 6.351-1.213c.471-.304.697-.625.678-.91a255 255 0 0 0-1.451-12.581c0-.517-.113-1.088-.169-1.677-.264-2.623-.585-5.889-2.77-7.138-1.885-1.142-6.577-.999-9.083-.749.471 2.926 1.677 11.973-.094 16.988a9.76 9.76 0 0 1-2.521 4.197 10.54 10.54 0 0 1-4.32 2.566z" fill="#231F20"/><path d="M190.044 198.305a3.65 3.65 0 0 1-1.343.714 3.8 3.8 0 0 1-1.536.114 3.7 3.7 0 0 1-1.444-.507 3.5 3.5 0 0 1-1.085-1.035" fill="#fff"/><path d="M187.482 200.089a3 3 0 0 1-.547 0 4.6 4.6 0 0 1-1.759-.656 4.3 4.3 0 0 1-1.312-1.289.86.86 0 0 1-.029-.996.9.9 0 0 1 .255-.253c.208-.132.463-.181.709-.138a.96.96 0 0 1 .61.37c.191.305.448.569.753.775s.652.349 1.018.421a3.45 3.45 0 0 0 2.28-.678.98.98 0 0 1 1.32.142.86.86 0 0 1-.132 1.249 5.85 5.85 0 0 1-3.166 1.053" fill="#231F20"/><path d="M179.907 191.274a5.86 5.86 0 0 0-1.639-2.73 8.7 8.7 0 0 0-1.885-1.785 3 3 0 0 0-1.187-.461 3.1 3.1 0 0 0-1.281.069 2.7 2.7 0 0 0-.946.6 2.55 2.55 0 0 0-.6.917 4.86 4.86 0 0 0-.244 2.141 8.87 8.87 0 0 0 1.726 4.417 9.56 9.56 0 0 0 3.814 3.024l-.283-.214" fill="#fff"/><path d="M177.663 198.447a1 1 0 0 1-.395 0 10.44 10.44 0 0 1-4.19-3.316 9.7 9.7 0 0 1-1.878-4.856 5.1 5.1 0 0 1 .301-2.534c.173-.462.449-.883.81-1.235a3.6 3.6 0 0 1 1.282-.799 4 4 0 0 1 1.708-.124 3.9 3.9 0 0 1 1.59.605 9.3 9.3 0 0 1 2.091 1.785 6.6 6.6 0 0 1 1.885 3.158.86.86 0 0 1-.173.664.96.96 0 0 1-.619.353.96.96 0 0 1-.7-.151.9.9 0 0 1-.249-.254.85.85 0 0 1-.125-.326 4.96 4.96 0 0 0-1.451-2.284 7.4 7.4 0 0 0-1.658-1.535 2.06 2.06 0 0 0-1.658-.303 1.82 1.82 0 0 0-.961.999 3.8 3.8 0 0 0-.189 1.784 8.06 8.06 0 0 0 1.369 3.704 8.64 8.64 0 0 0 3.003 2.703.93.93 0 0 1 .546.196l.283.214a.9.9 0 0 1 .318.547.87.87 0 0 1-.129.613.9.9 0 0 1-.351.297.96.96 0 0 1-.46.095m8.831-12.544c.337-.063.472-.78.303-1.602-.17-.822-.581-1.438-.918-1.375s-.473.779-.303 1.601.581 1.438.918 1.376m-20.231 28.194.603-4.8 19.56-1.339 3.128 6.603a40.4 40.4 0 0 1-23.291-.464" fill="#231F20"/><path d="M178.888 216.934a42.7 42.7 0 0 1-12.927-1.998.92.92 0 0 1-.502-.363.84.84 0 0 1-.138-.583l.621-4.8a.88.88 0 0 1 .285-.54.97.97 0 0 1 .582-.245l19.56-1.339a1 1 0 0 1 .547.123c.165.092.296.23.376.395l3.11 6.602c.05.113.077.235.077.357a.9.9 0 0 1-.077.357.98.98 0 0 1-.547.5 36.6 36.6 0 0 1-10.967 1.534m-11.608-3.461a40.5 40.5 0 0 0 20.973.517l-2.412-5.103-18.127 1.249z" fill="#231F20"/><path d="M189.554 214.561c-11.607-2.927-23.027-8.922-37.687 8.137-14.661 17.059-5.465 84.832-5.465 84.832 3.546 2.707 7.724 4.569 12.186 5.432s9.078.702 13.46-.471l37.424-8.922s-9.101-86.278-19.918-89.008m3.599 222.091v11.831s32.562-3.355 32.035-5.692-16.96-6.674-16.96-6.674z" fill="#2945FF"/><path d="M193.154 449.375a1.03 1.03 0 0 1-.641-.232.9.9 0 0 1-.221-.301.9.9 0 0 1-.081-.359v-11.831c0-.23.094-.452.263-.618a.96.96 0 0 1 .642-.274l15.075-.535h.283c6.388 1.695 17.166 4.889 17.656 7.369a1.2 1.2 0 0 1-.264.964c-1.884 2.427-25.495 5.032-32.694 5.764zm.942-11.848v9.957c13.341-1.41 27.474-3.569 30.037-4.765-1.451-1.302-9.102-3.89-15.942-5.692z" fill="#231F20"/><path d="m175.408 351.921 46.927-7.763-6.113-33.135-46.927 7.763z" fill="#fff"/><path d="M175.384 352.801a1 1 0 0 1-.609-.206.9.9 0 0 1-.333-.525l-6.106-33.137a.9.9 0 0 1 .151-.66 1 1 0 0 1 .622-.375l46.921-7.762a.98.98 0 0 1 .708.15.9.9 0 0 1 .254.254.9.9 0 0 1 .131.327l6.105 33.137a.75.75 0 0 1 .002.346.8.8 0 0 1-.152.314.88.88 0 0 1-.603.357l-46.94 7.763zm-5.031-33.297 5.785 31.37 45.074-7.441-5.728-31.299z" fill="#231F20"/><path d="M195.998 300.018s.321 5.353 1.885 6.567c1.564 1.213 7.085 4.461 6.689 5.514s-4.277 1.784-4.277 1.784 3.429 6.424.659 8.351-10.156 3.89-11.57 1.945-4.579-22.216-4.579-22.216" fill="#fff"/><path d="M191.872 325.874a7.4 7.4 0 0 1-1.131 0 3.05 3.05 0 0 1-1.233-.391 2.9 2.9 0 0 1-.934-.858c-1.469-1.998-4.202-19.165-4.729-22.591a.87.87 0 0 1 .176-.67.97.97 0 0 1 .625-.356 1 1 0 0 1 .707.167.9.9 0 0 1 .376.592c1.526 9.867 3.599 20.735 4.409 21.841.238.223.553.356.886.375a17.3 17.3 0 0 0 9.422-2.516c1.583-1.124 0-5.354-.942-7.138a.92.92 0 0 1 0-.803.9.9 0 0 1 .27-.314 1 1 0 0 1 .389-.168 12.4 12.4 0 0 0 3.449-1.106 32 32 0 0 0-4.504-3.408c-.716-.5-1.357-.91-1.752-1.214-1.885-1.374-2.186-6.245-2.243-7.138a.9.9 0 0 1 .241-.642 1 1 0 0 1 .645-.303.95.95 0 0 1 .689.217.9.9 0 0 1 .222.281.8.8 0 0 1 .088.34c.132 2.391.772 5.354 1.545 5.925.358.285.961.678 1.658 1.142 4.07 2.748 5.804 4.068 5.314 5.353-.377 1.035-2.242 1.784-3.769 2.106.942 2.087 2.544 6.584-.113 8.458a20.4 20.4 0 0 1-9.761 2.819" fill="#231F20"/><path d="m181.32 224.697 17.336 77.409-14.792 5.353s-22.877-69.165-24.987-74.393" fill="#2945FF"/><path d="M183.863 308.422a1.1 1.1 0 0 1-.396 0 .9.9 0 0 1-.306-.217.84.84 0 0 1-.184-.318c-.226-.696-22.895-69.2-24.968-74.357a.84.84 0 0 1-.04-.728.9.9 0 0 1 .216-.312.95.95 0 0 1 .72-.257 1 1 0 0 1 .379.1.9.9 0 0 1 .303.238.85.85 0 0 1 .174.334c1.979 4.943 21.897 65.025 24.705 73.537l13.19-4.765-17.185-76.731a.84.84 0 0 1 .122-.676.96.96 0 0 1 .594-.394c.246-.039.499.011.708.14s.36.327.422.556l17.337 77.391a.85.85 0 0 1-.094.61.93.93 0 0 1-.49.407l-14.793 5.353a.66.66 0 0 1-.414.089" fill="#231F20"/><path d="M194.717 225.464s9.516 28.551 11.099 48.947z" fill="#68E1FD"/><path d="M205.816 275.303a.97.97 0 0 1-.64-.235.87.87 0 0 1-.302-.585c-1.564-20.129-10.967-48.466-11.061-48.751a.86.86 0 0 1 .103-.64.94.94 0 0 1 .533-.405 1 1 0 0 1 .682.042.92.92 0 0 1 .472.467c.094.286 9.573 28.837 11.156 49.144a.85.85 0 0 1-.222.652.94.94 0 0 1-.645.311z" fill="#231F20"/><path d="M529.196 390.649s6.746-31.584-10.232-53.354c0 0-9.196 3.337-6.709 23.108 1.701 12.374 5.919 24.317 12.418 35.171z" fill="#fff"/><path d="M524.673 396.413a1.1 1.1 0 0 1-.431-.141 1 1 0 0 1-.323-.305c-6.553-10.978-10.82-23.045-12.569-35.546-2.525-20.254 6.935-23.929 7.349-24.072.198-.069.415-.077.618-.023.203.055.383.169.513.326 16.959 21.86 10.458 53.765 10.402 54.087a1 1 0 0 1-.226.428l-4.523 4.925a1 1 0 0 1-.366.249c-.14.056-.292.08-.444.072m-5.993-57.994c-1.884 1.213-7.424 6.192-5.464 21.788 1.664 11.815 5.605 23.24 11.626 33.708l3.449-3.765c.546-2.891 5.54-31.621-9.611-51.731" fill="#231F20"/><path d="M522.393 386.117s-7.877-51.32-36.256-69.593a126.8 126.8 0 0 0 8.48 36.92c7.443 17.755 21.049 34.261 21.049 34.261z" fill="#fff"/><path d="M515.666 388.562a1 1 0 0 1-.431-.092.96.96 0 0 1-.342-.265c-.132-.161-13.775-16.81-21.18-34.493a130 130 0 0 1-8.556-37.206.9.9 0 0 1 .128-.496 1 1 0 0 1 .381-.361.99.99 0 0 1 1.018 0c14.886 9.619 24.063 28.248 29.132 42.185a166.4 166.4 0 0 1 7.538 28.122.9.9 0 0 1-.163.641.98.98 0 0 1-.572.376l-6.727 1.535zm-28.398-70.218a126.3 126.3 0 0 0 8.254 34.689c5.379 11.938 12.277 23.21 20.539 33.566l5.22-1.178c-1.055-6.531-9.573-49.625-34.013-67.077" fill="#231F20"/><path d="M534.679 390.649s19.899-49.232 11.947-83.868c0 0-10.439 9.047-17.43 29.14-6.992 20.092-3.769 54.764-3.769 54.764z" fill="#fff"/><path d="M534.678 391.47h-9.271a1 1 0 0 1-.666-.234.9.9 0 0 1-.314-.604c0-.339-3.109-35.083 3.769-55.122s17.261-29.158 17.694-29.532a.94.94 0 0 1 .442-.224 1 1 0 0 1 .501.027.96.96 0 0 1 .429.253.87.87 0 0 1 .23.426c7.933 34.528-11.777 83.868-11.985 84.421a.9.9 0 0 1-.321.412.97.97 0 0 1-.508.177m-8.385-1.784H534c2.167-5.585 18.429-49.233 12.041-81.085-2.958 3.069-10.515 11.991-15.923 27.534-6.237 17.916-4.24 48.09-3.825 53.497z" fill="#231F20"/><path d="M546.099 385.029c.791 0 21.218-30.336 21.745-56.763-9.207 6.111-16.677 14.282-21.745 23.786-7.971 15.4-9.29 35.582-9.29 35.582z" fill="#fff"/><path d="M536.808 388.562c-.133 0-.266-.026-.388-.076a.97.97 0 0 1-.534-.534.9.9 0 0 1-.058-.372c0-.196 1.433-20.556 9.422-35.938 5.129-9.666 12.719-17.969 22.085-24.162a1.01 1.01 0 0 1 .999 0 .97.97 0 0 1 .374.344c.09.145.136.31.135.477-.509 24.608-19.07 55.8-22.462 57.584l-9.29 2.605zm30-58.476c-8.326 5.925-15.113 13.572-19.843 22.359-6.633 12.83-8.63 29.211-9.083 33.904l7.745-2.177c1.809-2.016 19.824-29.443 21.181-54.086" fill="#231F20"/><path d="M542.744 416.916h-27.079l-10.496-36.83h48.052z" fill="#2945FF"/><path d="M542.839 417.809h-27.173a.96.96 0 0 1-.573-.182.87.87 0 0 1-.331-.479l-10.496-36.83a.81.81 0 0 1 .169-.768.94.94 0 0 1 .324-.259c.128-.061.268-.095.411-.098h48.052c.144.002.287.034.416.095q.197.093.332.257a.87.87 0 0 1 .175.773l-10.496 36.83a.9.9 0 0 1-.297.45.97.97 0 0 1-.513.211m-26.381-1.785h25.646l9.987-35.046h-45.696z" fill="#231F20"/></svg>