<svg width="32" height="35" viewBox="0 0 32 35" fill="none" xmlns="http://www.w3.org/2000/svg"><path d="M16 32.083c1.467 0 2.667-1.312 2.667-2.916h-5.334c0 1.604 1.187 2.916 2.667 2.916m8-8.75v-7.291c0-4.477-2.187-8.225-6-9.217v-.992c0-1.21-.893-2.187-2-2.187s-2 .977-2 2.187v.992c-3.827.992-6 4.725-6 9.217v7.291L5.333 26.25v1.458h21.334V26.25z" fill="#2F80ED"/><path d="M22.667 15.083c3.262 0 5.833-2.878 5.833-6.333s-2.57-6.333-5.833-6.333-5.834 2.878-5.834 6.333 2.57 6.333 5.834 6.333Z" fill="#EB5757" stroke="#fff"/></svg>