<svg xmlns="http://www.w3.org/2000/svg" viewBox="0 0 25 25" fill="none"><path d="m19.973 3.984-4.18-.017c-.415-1.162-1.512-2.007-2.812-2.012s-2.403.83-2.828 1.988l-4.18-.017a2.006 2.006 0 0 0-2.008 1.992l-.058 14A2.006 2.006 0 0 0 5.9 21.926l14 .058a2.006 2.006 0 0 0 2.008-1.992l.058-14a2.006 2.006 0 0 0-1.992-2.008m-7-.029c.55.002.998.454.996 1.004s-.454.998-1.004.996a1.003 1.003 0 0 1-.996-1.004c.002-.55.454-.998 1.004-.996m1.942 14.008-7-.029.009-2 7 .03zm3.017-3.987-10-.042.008-2 10 .042zm.016-4-10-.042.009-2 10 .042z"/></svg>